<svg width="30" height="26" viewBox="0 0 30 26" xmlns="http://www.w3.org/2000/svg">
<path d="M29.5545 15.632L26.1326 8.30251L27.6097 8.72622C27.9341 8.81932 28.2726 8.63193 28.3655 8.30728C28.4586 7.98287 28.2712 7.64461 27.9468 7.55151L17.6759 4.6041C17.678 4.56018 17.6792 4.51625 17.6792 4.47209C17.6794 3.2525 16.8561 2.18664 15.6759 1.87941C14.4957 1.57195 13.257 2.1007 12.6624 3.16537L2.39049 0.218194C2.06608 0.125095 1.72758 0.312725 1.63448 0.637138C1.54162 0.961551 1.72901 1.29981 2.05342 1.39291L4.08059 1.97466L0.409396 9.83792C0.164475 9.92362 0.000239036 10.1547 3.21511e-07 10.4144C-0.000715825 12.3984 1.19501 14.1868 3.02857 14.9443C4.86214 15.7019 6.97166 15.2789 8.37148 13.8732C9.30414 12.9639 9.83098 11.7171 9.83337 10.4144C9.83337 10.1408 9.65123 9.9007 9.38793 9.82646L5.97598 2.51869L12.3244 4.34008C12.3222 4.384 12.321 4.42793 12.321 4.47233C12.3229 5.71579 13.1787 6.79502 14.389 7.08005V21.9401C12.2929 21.9401 10.5306 21.9082 10.2335 21.9694C9.09932 22.2081 8.28507 23.2055 8.27791 24.3647V25.2202C8.28817 25.5652 8.56818 25.8411 8.91336 25.8461H21.0869C21.432 25.8411 21.712 25.5652 21.7223 25.2202V24.3647C21.7152 23.2055 20.9009 22.2081 19.7668 21.9694C19.5612 21.9082 17.6174 21.9401 15.6112 21.9401V7.08005C16.3436 6.90698 16.9697 6.4348 17.3378 5.77858L24.2548 7.76349L20.576 15.6435C20.3308 15.7292 20.1666 15.9602 20.1664 16.2197C20.1659 18.2037 21.3616 19.9921 23.1952 20.7496C25.0287 21.5072 27.138 21.0845 28.5379 19.6787C29.4705 18.7692 29.9976 17.5224 30 16.2197C29.9997 15.9461 29.8178 15.7062 29.5545 15.632ZM4.90129 3.07632L8.02821 9.77394H1.7746L4.90129 3.07632ZM4.90129 14.0639C3.10138 14.0744 1.56191 12.7729 1.27307 10.9962H8.55744C8.2464 12.7715 6.70382 14.066 4.90129 14.0639ZM20.5001 24.3647V24.6239H9.50012V24.3647C9.50012 23.6908 10.073 23.1572 10.7467 23.1572H19.2535C19.9272 23.1572 20.5001 23.6908 20.5001 24.3647ZM15.0001 5.92897C14.3787 5.92944 13.8254 5.53604 13.6218 4.94904C13.4181 4.36204 13.6089 3.71059 14.0968 3.32602C14.585 2.94145 15.2632 2.90851 15.7862 3.24414C16.3092 3.57954 16.562 4.2095 16.4162 4.81345C16.4006 4.85212 16.3892 4.89199 16.3818 4.93281C16.1829 5.52721 15.6267 5.92825 15.0001 5.92897ZM28.1948 15.5795H21.9412L25.0679 8.88187L28.1948 15.5795ZM25.0679 19.8694C23.268 19.8799 21.7285 18.5785 21.4397 16.8017H28.7241C28.413 18.577 26.8704 19.8716 25.0679 19.8694Z"/>
</svg>
