<svg width="30" height="28" viewBox="0 0 30 28" xmlns="http://www.w3.org/2000/svg">
<path d="M29.8751 4.24996C29.7501 4.12498 29.6251 3.99994 29.3751 3.99994H5.62506L5.00004 0.749981C5.00004 0.499961 4.62504 0.25 4.37502 0.25H0.625022C0.250081 0.249941 6.10352e-05 0.499961 6.10352e-05 0.874961C6.10352e-05 1.24996 0.250081 1.49998 0.625081 1.49998H3.8751L6.8751 16.75C7.2501 18.75 9.1251 20.25 11.1251 20.25H25.5001C25.8751 20.25 26.1251 20 26.1251 19.625C26.1251 19.25 25.8751 19 25.5001 19H11.2501C10.25 19 9.25008 18.5 8.75004 17.6249L27.0001 15.125C27.2501 15.125 27.5 14.875 27.5 14.625L30.0001 4.62496C30.0001 4.62496 30.0001 4.37494 29.8751 4.24996ZM26.375 14L8.12502 16.375L5.87502 5.12495H28.5001L26.375 14Z"/>
<path d="M10.625 21.5C8.87508 21.5 7.50006 22.875 7.50006 24.625C7.50006 26.375 8.87508 27.75 10.625 27.75C12.3751 27.75 13.75 26.3749 13.75 24.625C13.7501 22.875 12.3751 21.5 10.625 21.5ZM10.625 26.5C9.62502 26.5 8.75004 25.6249 8.75004 24.625C8.75004 23.625 9.62502 22.75 10.625 22.75C11.6251 22.75 12.5 23.625 12.5 24.625C12.5 25.6249 11.6251 26.5 10.625 26.5Z"/>
<path d="M23.125 21.5C21.375 21.5 20.0001 22.875 20.0001 24.625C20.0001 26.375 21.3751 27.75 23.125 27.75C24.8751 27.75 26.25 26.3749 26.25 24.625C26.25 22.875 24.875 21.5 23.125 21.5ZM23.125 26.5C22.125 26.5 21.25 25.6249 21.25 24.625C21.25 23.625 22.125 22.75 23.125 22.75C24.1251 22.75 25 23.625 25 24.625C25 25.6249 24.125 26.5 23.125 26.5Z"/>
</svg>
