<svg width="30" height="30" viewBox="0 0 30 30" xmlns="http://www.w3.org/2000/svg">
<path d="M29.2129 23.1434L23.1408 19.094C22.3702 18.5843 21.3373 18.752 20.7676 19.4795L18.9989 21.7536C18.7715 22.0533 18.3583 22.1403 18.0295 21.9576L17.6931 21.7721C16.5777 21.1642 15.1899 20.4073 12.3939 17.6102C9.59777 14.8132 8.83939 13.4243 8.23145 12.3111L8.04696 11.9746C7.86178 11.6458 7.94708 11.2309 8.24691 11.0017L10.5195 9.23352C11.2467 8.66378 11.4147 7.63116 10.9055 6.86036L6.85611 0.788251C6.33429 0.00332834 5.28737 -0.232301 4.47954 0.253311L1.94041 1.77857C1.1426 2.2476 0.557275 3.00722 0.307176 3.89824C-0.607161 7.22974 0.0806853 12.9794 8.55044 21.4501C15.288 28.1871 20.3037 29.9989 23.7512 29.9989C24.5446 30.0023 25.3349 29.899 26.1009 29.6919C26.9921 29.4421 27.7518 28.8568 28.2206 28.0587L29.7473 25.5211C30.2337 24.7131 29.9981 23.6655 29.2129 23.1434ZM28.8859 25.0081L27.3626 27.5473C27.0261 28.1233 26.4796 28.5468 25.8378 28.7291C22.7623 29.5735 17.3891 28.8741 9.2578 20.7428C1.12649 12.6115 0.427158 7.23876 1.27154 4.16275C1.4541 3.52019 1.87813 2.97306 2.45485 2.63596L4.99398 1.11269C5.34449 0.901789 5.79888 1.00402 6.02531 1.34463L8.22501 4.64713L10.0713 7.41621C10.2924 7.75056 10.2197 8.19867 9.90429 8.44608L7.63113 10.2143C6.93936 10.7433 6.74181 11.7004 7.16772 12.46L7.34822 12.7879C7.98715 13.9598 8.7815 15.4175 11.6816 18.3171C14.5817 21.2167 16.039 22.0111 17.2103 22.65L17.5387 22.8309C18.2982 23.2568 19.2554 23.0593 19.7844 22.3675L21.5526 20.0944C21.8 19.7791 22.248 19.7065 22.5824 19.9274L28.654 23.9768C28.9949 24.2031 29.0971 24.6577 28.8859 25.0081Z"/>
<path d="M16.9992 5.00262C21.6907 5.00783 25.4927 8.80983 25.4979 13.5014C25.4979 13.7775 25.7217 14.0013 25.9978 14.0013C26.2739 14.0013 26.4977 13.7775 26.4977 13.5014C26.4919 8.25784 22.2427 4.00855 16.9992 4.00281C16.7231 4.00281 16.4993 4.2266 16.4993 4.50271C16.4993 4.77883 16.7231 5.00262 16.9992 5.00262Z"/>
<path d="M16.9992 8.00225C20.0348 8.00583 22.4948 10.4658 22.4984 13.5015C22.4984 13.7776 22.7222 14.0014 22.9983 14.0014C23.2744 14.0014 23.4982 13.7776 23.4982 13.5015C23.494 9.91383 20.5867 7.00654 16.9992 7.00244C16.7231 7.00244 16.4993 7.22624 16.4993 7.50235C16.4993 7.77846 16.7231 8.00225 16.9992 8.00225Z"/>
<path d="M16.9992 11.0018C18.379 11.0034 19.4971 12.1216 19.4988 13.5014C19.4988 13.7775 19.7227 14.0013 19.9987 14.0013C20.2748 14.0013 20.4986 13.7775 20.4986 13.5014C20.4964 11.5696 18.931 10.0041 16.9992 10.002C16.7231 10.002 16.4993 10.2257 16.4993 10.5019C16.4993 10.778 16.7231 11.0018 16.9992 11.0018Z"/>
</svg>
