<svg width="34" height="34" viewBox="0 0 34 34" xmlns="http://www.w3.org/2000/svg">
<g clip-path="url(#clip0_2401_260)">
<path fill-rule="evenodd" clip-rule="evenodd" d="M20.489 8.69068C21.0083 8.10523 21.9192 8.09493 22.4516 8.6685L27.9626 14.6055C28.0082 14.6546 28.1085 14.7655 28.1659 14.9289C28.264 15.2081 28.2669 15.5909 28.2387 15.8923C28.2234 16.0561 28.1962 16.2259 28.1552 16.3834C28.1164 16.5324 28.0556 16.7085 27.9548 16.8588C27.9 16.9404 27.8394 17.0022 27.8066 17.0352C27.7953 17.0466 27.7888 17.0531 27.7835 17.0584C27.7777 17.0641 27.7734 17.0684 27.7657 17.0763C27.7611 17.081 27.7579 17.0843 27.7556 17.0868C27.7545 17.088 27.7537 17.0889 27.7532 17.0895C27.7526 17.0901 27.7524 17.0904 27.7524 17.0904L16.7653 30.1227C16.7654 30.1226 16.7623 30.1263 16.7536 30.1386C16.7464 30.1488 16.7427 30.1541 16.7379 30.1612C16.7333 30.1679 16.7277 30.1762 16.7168 30.1919C16.6871 30.2345 16.63 30.3155 16.5469 30.3914C16.3186 30.6001 15.9868 30.7056 15.7435 30.7595C15.4812 30.8177 15.18 30.846 14.9322 30.817C14.6892 30.7886 14.5116 30.6659 14.4089 30.582L7.74702 25.1324C7.16446 24.6559 7.09526 23.7904 7.5947 23.2274L20.489 8.69068ZM21.6191 9.44125C21.5431 9.35931 21.4129 9.36078 21.3388 9.44442L8.44444 23.9811C8.37309 24.0615 8.38297 24.1852 8.4662 24.2532L15.1153 29.6923C15.2077 29.695 15.3484 29.6837 15.4976 29.6506C15.5834 29.6316 15.6577 29.6084 15.7143 29.5849C15.747 29.5712 15.7665 29.5605 15.7762 29.5548C15.7784 29.5517 15.7812 29.5478 15.7844 29.5431C15.7868 29.5397 15.7891 29.5364 15.7916 29.5327C15.7946 29.5283 15.7979 29.5235 15.8019 29.5177C15.8086 29.508 15.8169 29.4959 15.8258 29.4833C15.8435 29.4583 15.8675 29.4254 15.8968 29.3906L26.884 16.3583C26.9099 16.3275 26.9347 16.3014 26.9539 16.2818C26.9636 16.2719 26.9728 16.2627 26.9803 16.2552L26.9853 16.2502C26.991 16.2446 26.9955 16.2401 27.0001 16.2354C27.0064 16.229 27.0109 16.2244 27.0138 16.2212C27.0198 16.2089 27.0368 16.1708 27.056 16.0971C27.0787 16.01 27.097 15.9021 27.1078 15.7867C27.1185 15.6716 27.1208 15.5596 27.1156 15.4654C27.113 15.4186 27.1087 15.3799 27.1038 15.3501C27.1038 15.35 27.1038 15.3499 27.1038 15.3499L21.6191 9.44125ZM27.0605 23.1266L28.1363 22.7621L28.975 25.2373L31.5874 25.6392L31.4147 26.7618L28.1206 26.255L27.0605 23.1266ZM25.3596 25.4741L26.4354 25.1095L27.0865 27.0305L30.3212 27.6537L30.1063 28.769L26.2229 28.0208L25.3596 25.4741ZM23.548 27.7241L24.6123 27.3273L25.3453 29.2936H29.0779V30.4294H24.5565L23.548 27.7241Z"/>
<path fill-rule="evenodd" clip-rule="evenodd" d="M25.6682 1.08934C25.903 1.29732 25.9248 1.65625 25.7168 1.89104L1.63662 29.0759C1.42864 29.3107 1.06971 29.3324 0.834914 29.1245C0.600122 28.9165 0.578385 28.5575 0.786362 28.3227L24.8665 1.13789C25.0745 0.903101 25.4335 0.881363 25.6682 1.08934Z"/>
<path fill-rule="evenodd" clip-rule="evenodd" d="M20.0583 18.6031C19.3916 17.5079 17.9565 17.1588 16.8613 17.8254C15.7661 18.4921 15.417 19.9272 16.0837 21.0224C16.7503 22.1176 18.1855 22.4667 19.2807 21.8001C20.3759 21.1334 20.7249 19.6983 20.0583 18.6031ZM16.2707 16.8552C17.9018 15.8624 20.0357 16.3814 21.0285 18.0125C22.0214 19.6435 21.5023 21.7775 19.8713 22.7703C18.2402 23.7631 16.1063 23.2441 15.1134 21.613C14.1206 19.982 14.6397 17.848 16.2707 16.8552Z" fill="#E67861"/>
<path fill-rule="evenodd" clip-rule="evenodd" d="M26.8319 19.2369C27.5747 18.368 28.9954 18.7843 29.1519 19.9166L29.4182 21.8443L28.2931 21.9997L28.0267 20.0721C28.0043 19.9103 27.8014 19.8509 27.6953 19.975L19.5557 29.4957C19.4439 29.6264 19.5504 29.8265 19.7213 29.8067L22.3491 29.503L22.4795 30.6313L19.8518 30.9351C18.6553 31.0734 17.9097 29.673 18.6923 28.7576L26.8319 19.2369Z"/>
<path fill-rule="evenodd" clip-rule="evenodd" d="M4.32337 5.90138L7.14035 7.23397L7.62607 6.20721L4.80913 4.87464C4.80913 4.87464 4.80701 4.87361 4.80198 4.87081C4.79634 4.86767 4.78908 4.86344 4.77785 4.85671C4.77515 4.8551 4.77181 4.85308 4.76794 4.85074C4.74754 4.83841 4.71233 4.81713 4.67837 4.79866C4.23988 4.56005 3.68202 4.65784 3.35386 5.05666L1.56591 7.18046L1.56299 7.18405C1.2018 7.62758 1.25836 8.27415 1.68407 8.64877L3.9107 10.9698L4.73037 10.1835L2.48926 7.84735L4.18917 5.82813C4.19076 5.82909 4.19242 5.83008 4.19413 5.83111C4.22288 5.84833 4.2692 5.87576 4.32337 5.90138Z"/>
<path fill-rule="evenodd" clip-rule="evenodd" d="M28.8241 21.0165L31.3501 23.1812L31.9479 27.1955L27.76 32.4099L23.2594 32.4099L21.6114 29.5458L28.8241 21.0165ZM28.9531 22.623L22.9936 29.6704L23.9163 31.274L27.2154 31.274L30.7513 26.8715L30.289 23.7678L28.9531 22.623Z"/>
<path d="M30.1771 32.6826L29.3051 31.9548L32.0225 28.6993L32.8945 29.4271L30.1771 32.6826Z" fill="#E67861"/>
<path d="M0.720581 7.39087L-0.151426 6.66301L2.5659 3.40752L3.43791 4.13537L0.720581 7.39087Z" fill="#E67861"/>
<path fill-rule="evenodd" clip-rule="evenodd" d="M15.4229 3.36377L18.4933 7.24696L6.73958 20.9078L5.94233 21.705L2.42255 21.0103L1.18237 16.4789L2.94306 16.1513L2.86615 12.5366L4.89925 12.3832L4.97505 9.76798L7.21718 9.61064L7.86736 6.47446H9.99968L10.5523 4.11649L15.4229 3.36377ZM11.1663 6.47446H14.0385L13.8116 10.9468L17.0212 7.21644L14.9424 4.58738L11.4833 5.12196L11.1663 6.47446ZM12.6963 12.243L12.6088 12.2386L12.8435 7.61032H8.79189L8.39191 9.53961L10.969 9.3984L11.3454 13.8131L12.6963 12.243ZM10.3929 14.9202L10.3005 14.9281L9.93083 10.5928L7.72136 10.7139L6.08063 10.8291L6.03803 12.299L7.9835 12.1575L8.95871 16.587L10.3929 14.9202ZM8.03261 17.6634L7.08555 13.3616L5.49486 13.4773L5.49331 13.4774L4.02465 13.5883L4.074 15.9079L5.89382 15.4798L6.65157 19.2685L8.03261 17.6634ZM5.70643 20.3346L5.01042 16.8545L3.63817 17.1774L2.60382 17.3698L3.33247 20.0322L5.5677 20.4733L5.70643 20.3346Z"/>
</g>
<defs>
<clipPath id="clip0_2401_260">
<rect width="34" height="34" fill="white"/>
</clipPath>
</defs>
</svg>
