<svg width="35" height="34" viewBox="0 0 35 34" xmlns="http://www.w3.org/2000/svg">
<path fill-rule="evenodd" clip-rule="evenodd" d="M18.6719 19.4145L18.6719 30.5925C18.6719 32.4745 17.1463 34.0001 15.2643 34.0001L7.91913 34.0001C6.03718 34.0001 4.51156 32.4745 4.51156 30.5925L4.51156 19.4437C4.51156 19.0108 4.59407 18.5817 4.75468 18.1797L9.20692 7.03393C9.95383 5.16411 11.7643 3.93774 13.7778 3.93774L17.2616 3.93774C20.6907 3.93774 23.0689 7.35646 21.8764 10.5715L18.7428 19.0195C18.6959 19.1459 18.6719 19.2797 18.6719 19.4145ZM17.5361 19.4145C17.5361 19.1449 17.5841 18.8773 17.6779 18.6245L20.8114 10.1765C21.7288 7.70338 19.8993 5.0736 17.2616 5.0736L13.7778 5.0736C12.2289 5.0736 10.8363 6.01696 10.2617 7.45529L5.8095 18.601C5.70242 18.8691 5.64741 19.1551 5.64741 19.4437L5.64741 30.5925C5.64741 31.8472 6.66449 32.8642 7.91913 32.8642L15.2643 32.8642C16.519 32.8642 17.5361 31.8472 17.5361 30.5925L17.5361 19.4145Z"/>
<path fill-rule="evenodd" clip-rule="evenodd" d="M35 21.2784L35 30.5925C35 32.4744 33.4744 34 31.5924 34L26.9733 34C25.0913 34 23.5657 32.4744 23.5657 30.5925L23.5657 21.2784C23.5657 19.3965 25.0913 17.8708 26.9733 17.8708L31.5924 17.8708C33.4744 17.8708 35 19.3965 35 21.2784ZM33.8641 21.2784C33.8641 20.0238 32.8471 19.0067 31.5924 19.0067L26.9733 19.0067C25.7187 19.0067 24.7016 20.0238 24.7016 21.2784L24.7016 30.5925C24.7016 31.8471 25.7187 32.8642 26.9733 32.8642L31.5924 32.8642C32.8471 32.8642 33.8641 31.8471 33.8641 30.5925L33.8641 21.2784Z"/>
<path d="M7.19754 5.04075L11.2421 4.96905L10.1767 6.12115L7.21583 6.17537C6.80004 6.18232 6.3955 6.31166 6.05284 6.54733C5.09042 7.20915 4.84677 8.52582 5.50857 9.48817L7.18371 11.9272L6.86204 13.4686L4.5736 10.131C4.21278 9.60528 4.01451 8.9851 4.00345 8.34761C3.97231 6.55242 5.40236 5.07189 7.19754 5.04075Z"/>
<path d="M22.4778 17.437L18.4861 18.0928L19.3738 16.7987L22.2957 16.3169C22.7061 16.2499 23.0877 16.0635 23.3926 15.7807C24.2492 14.9867 24.3 13.6486 23.506 12.7921L21.4958 10.6209L21.5912 9.04921L24.3382 12.0209C24.7712 12.4889 25.0571 13.0738 25.1602 13.703C25.4506 15.4749 24.2496 17.1466 22.4778 17.437Z"/>
<path d="M20.4217 2.43486L21.5138 6.32985L20.1297 5.59037L19.3285 2.73946C19.2167 2.33894 18.9893 1.98025 18.6746 1.70832C17.7909 0.94453 16.4554 1.04174 15.6917 1.92537L13.7555 4.16283L12.1829 4.24137L14.8334 1.18333C15.2507 0.701313 15.8006 0.352661 16.4146 0.180764C18.1436 -0.303305 19.9376 0.705888 20.4217 2.43486Z"/>
<path d="M2.69566 22.8011L5.50059 21.187L5.08147 22.6993L3.23179 23.8012C2.86541 23.9979 2.56509 24.2982 2.3685 24.6647C1.81629 25.6939 2.20301 26.9759 3.23219 27.528L5.08147 28.7013L5.50179 30.2187L2.69566 28.5278C2.13409 28.2259 1.67369 27.7655 1.37177 27.2039C0.521548 25.6225 1.11427 23.6513 2.69566 22.8011Z"/>
<path d="M20.9198 22.8011L18.1149 21.187L18.534 22.6993L20.3837 23.8012C20.7501 23.9979 21.0504 24.2982 21.247 24.6647C21.7992 25.6939 21.4125 26.9759 20.3833 27.528L18.534 28.7013L18.1137 30.2187L20.9198 28.5278C21.4814 28.2259 21.9418 27.7655 22.2437 27.2039C23.0939 25.6225 22.5012 23.6513 20.9198 22.8011Z"/>
<path fill-rule="evenodd" clip-rule="evenodd" d="M16.125 19.349L16.125 29.6838C16.125 30.7293 15.2774 31.5769 14.2319 31.5769L9.05499 31.5769C8.00946 31.5769 7.16189 30.7293 7.16189 29.6838L7.16189 19.3594C7.16189 18.9365 7.24061 18.5173 7.39403 18.1232L11.3451 7.974C11.7415 6.95576 12.7222 6.28516 13.8149 6.28516L17.1596 6.28516C19.0141 6.28516 20.2953 8.14092 19.6378 9.87502L16.1988 18.9463C16.15 19.075 16.125 19.2114 16.125 19.349ZM14.9891 19.349C14.9891 19.0738 15.0391 18.801 15.1367 18.5437L18.5757 9.47236C18.9514 8.48145 18.2193 7.42101 17.1596 7.42101L13.8149 7.42101C13.1905 7.42101 12.6301 7.80421 12.4036 8.38607L8.45251 18.5353C8.35023 18.798 8.29775 19.0775 8.29775 19.3594L8.29775 29.6838C8.29775 30.102 8.63678 30.4411 9.05499 30.4411L14.2319 30.4411C14.6501 30.4411 14.9891 30.102 14.9891 29.6838L14.9891 19.349Z" fill="#E67861"/>
<path d="M7.46484 8.78405L7.46484 7.64819L6.32899 7.64819L6.32899 8.78405L7.46484 8.78405Z"/>
<path d="M21.3755 13.3532L21.3755 14.489L22.5113 14.489L22.5113 13.3532L21.3755 13.3532Z"/>
<path d="M4.13293 26.2006L4.13293 25.0647L2.99708 25.0647L2.99708 26.2006L4.13293 26.2006Z"/>
<path d="M19.4825 26.2006L19.4825 25.0647L20.6184 25.0647L20.6184 26.2006L19.4825 26.2006Z"/>
<path d="M17.9147 3.10461L17.9147 1.96875L16.7789 1.96875L16.7789 3.10461L17.9147 3.10461Z"/>
<path d="M26.9733 31.5011L26.9733 30.3652L25.8374 30.3652L25.8374 31.5011L26.9733 31.5011Z" />
<path fill-rule="evenodd" clip-rule="evenodd" d="M31.5925 26.9578L31.5925 24.9132C31.5925 23.8677 30.7449 23.0201 29.6994 23.0201L28.8664 23.0201C27.8209 23.0201 26.9733 23.8677 26.9733 24.9132L26.9733 26.9578C26.9733 28.0033 27.8209 28.8509 28.8664 28.8509L29.6994 28.8509C30.7449 28.8509 31.5925 28.0033 31.5925 26.9578ZM32.7283 24.9132C32.7283 23.2404 31.3722 21.8843 29.6994 21.8843L28.8664 21.8843C27.1936 21.8843 25.8375 23.2404 25.8375 24.9132L25.8375 26.9578C25.8375 28.6306 27.1936 29.9867 28.8664 29.9867L29.6994 29.9867C31.3722 29.9867 32.7283 28.6306 32.7283 26.9578L32.7283 24.9132Z" fill="#E67861"/>
<path d="M26.9733 21.5055L26.9733 20.3696L25.8374 20.3696L25.8374 21.5055L26.9733 21.5055Z"/>
<path d="M32.6526 31.5011L32.6526 30.3652L31.5167 30.3652L31.5167 31.5011L32.6526 31.5011Z"/>
<path d="M32.6526 21.5055L32.6526 20.3696L31.5167 20.3696L31.5167 21.5055L32.6526 21.5055Z"/>
</svg>
