<svg width="34" height="34" viewBox="0 0 34 34" xmlns="http://www.w3.org/2000/svg">
<g clip-path="url(#clip0_2401_299)">
<path d="M19.9006 1.69566L21.8175 5.25783L20.3053 4.8387L18.9005 2.23179C18.7038 1.86541 18.4035 1.56509 18.037 1.3685C17.0077 0.81629 15.7258 1.20301 15.1736 2.23219L13.7732 4.8387L12.2558 5.25903L14.1739 1.69566C14.4758 1.13409 14.9362 0.673693 15.4978 0.37177C17.0792 -0.478452 19.0504 0.114274 19.9006 1.69566Z"/>
<path d="M19.9006 32.2724L21.8175 28.7102L20.3053 29.1293L18.9005 31.7362C18.7038 32.1026 18.4035 32.4029 18.037 32.5995C17.0077 33.1517 15.7258 32.765 15.1736 31.7358L13.7732 29.1293L12.2558 28.709L14.1739 32.2724C14.4758 32.8339 14.9362 33.2943 15.4978 33.5962C17.0792 34.4465 19.0504 33.8537 19.9006 32.2724Z"/>
<path d="M17.0449 8.68921C17.4058 8.68921 17.7585 8.5822 18.0585 8.38173C18.3586 8.18125 18.5924 7.89631 18.7305 7.56293C18.8686 7.22955 18.9047 6.86272 18.8343 6.5088C18.7639 6.15489 18.5902 5.8298 18.335 5.57464C18.0799 5.31949 17.7548 5.14572 17.4009 5.07533C17.0469 5.00493 16.6801 5.04106 16.3467 5.17915C16.0134 5.31724 15.7284 5.55109 15.5279 5.85112C15.3275 6.15115 15.2205 6.50389 15.2205 6.86474C15.2205 7.34862 15.4127 7.81268 15.7548 8.15483C16.097 8.49699 16.561 8.68921 17.0449 8.68921ZM17.0449 6.25658C17.1652 6.25658 17.2828 6.29225 17.3828 6.35907C17.4828 6.4259 17.5608 6.52088 17.6068 6.63201C17.6528 6.74313 17.6649 6.86541 17.6414 6.98338C17.6179 7.10136 17.56 7.20972 17.475 7.29477C17.3899 7.37982 17.2815 7.43774 17.1636 7.46121C17.0456 7.48468 16.9233 7.47263 16.8122 7.4266C16.7011 7.38057 16.6061 7.30262 16.5393 7.20261C16.4724 7.1026 16.4368 6.98502 16.4368 6.86474C16.4368 6.70345 16.5008 6.54876 16.6149 6.43471C16.7289 6.32066 16.8836 6.25658 17.0449 6.25658Z"/>
<path d="M17.0449 25.2349C16.6841 25.2349 16.3313 25.3419 16.0313 25.5423C15.7313 25.7428 15.4974 26.0278 15.3593 26.3611C15.2212 26.6945 15.1851 27.0613 15.2555 27.4153C15.3259 27.7692 15.4997 28.0943 15.7548 28.3494C16.01 28.6046 16.3351 28.7783 16.689 28.8487C17.0429 28.9191 17.4098 28.883 17.7431 28.7449C18.0765 28.6068 18.3615 28.373 18.5619 28.0729C18.7624 27.7729 18.8694 27.4202 18.8694 27.0593C18.8694 26.5754 18.6772 26.1114 18.335 25.7692C17.9929 25.4271 17.5288 25.2349 17.0449 25.2349ZM17.6531 27.0593C17.6531 27.1796 17.6174 27.2972 17.5506 27.3972C17.4838 27.4972 17.3888 27.5752 17.2777 27.6212C17.1665 27.6672 17.0443 27.6793 16.9263 27.6558C16.8083 27.6323 16.7 27.5744 16.6149 27.4894C16.5298 27.4043 16.4719 27.2959 16.4485 27.178C16.425 27.06 16.437 26.9377 16.4831 26.8266C16.5291 26.7155 16.607 26.6205 16.7071 26.5537C16.8071 26.4868 16.9247 26.4512 17.0449 26.4512C17.2062 26.4512 17.3609 26.5152 17.475 26.6293C17.589 26.7433 17.6531 26.898 17.6531 27.0593Z" fill="#E67861"/>
<path fill-rule="evenodd" clip-rule="evenodd" d="M17.0449 25.8406C16.8039 25.8406 16.5683 25.9121 16.3679 26.046C16.1675 26.1799 16.0113 26.3703 15.919 26.593C15.8268 26.8156 15.8026 27.0607 15.8497 27.2971C15.8967 27.5335 16.0128 27.7506 16.1832 27.9211C16.3536 28.0915 16.5708 28.2076 16.8072 28.2546C17.0436 28.3016 17.2886 28.2775 17.5113 28.1852C17.734 28.093 17.9243 27.9368 18.0582 27.7364C18.1921 27.536 18.2636 27.3004 18.2636 27.0593C18.2636 26.7361 18.1352 26.4261 17.9067 26.1976C17.6781 25.969 17.3681 25.8406 17.0449 25.8406ZM18.2589 27.0593C18.2589 27.2994 18.1877 27.5341 18.0543 27.7338C17.9209 27.9334 17.7313 28.089 17.5095 28.1809C17.2877 28.2727 17.0436 28.2968 16.8081 28.2499C16.5726 28.2031 16.3563 28.0875 16.1865 27.9177C16.0168 27.7479 15.9012 27.5316 15.8543 27.2962C15.8075 27.0607 15.8315 26.8166 15.9234 26.5948C16.0153 26.3729 16.1709 26.1834 16.3705 26.05C16.5701 25.9166 16.8048 25.8454 17.0449 25.8454C17.3669 25.8454 17.6757 25.9733 17.9033 26.2009C18.131 26.4286 18.2589 26.7374 18.2589 27.0593ZM16.0313 25.5423C16.3313 25.3419 16.6841 25.2349 17.0449 25.2349C17.5288 25.2349 17.9929 25.4271 18.335 25.7692C18.6772 26.1114 18.8694 26.5754 18.8694 27.0593C18.8694 27.4202 18.7624 27.7729 18.5619 28.0729C18.3615 28.373 18.0765 28.6068 17.7431 28.7449C17.4098 28.883 17.0429 28.9191 16.689 28.8487C16.3351 28.7783 16.01 28.6046 15.7548 28.3494C15.4997 28.0943 15.3259 27.7692 15.2555 27.4153C15.1851 27.0613 15.2212 26.6945 15.3593 26.3611C15.4974 26.0278 15.7313 25.7428 16.0313 25.5423ZM17.5506 27.3972C17.6174 27.2972 17.6531 27.1796 17.6531 27.0593C17.6531 26.898 17.589 26.7433 17.475 26.6293C17.3609 26.5152 17.2062 26.4512 17.0449 26.4512C16.9247 26.4512 16.8071 26.4868 16.7071 26.5537C16.607 26.6205 16.5291 26.7155 16.4831 26.8266C16.437 26.9377 16.425 27.06 16.4485 27.178C16.4719 27.2959 16.5298 27.4043 16.6149 27.4894C16.7 27.5744 16.8083 27.6323 16.9263 27.6558C17.0443 27.6793 17.1665 27.6672 17.2777 27.6212C17.3888 27.5752 17.4838 27.4972 17.5506 27.3972Z" fill="#E67861"/>
<path fill-rule="evenodd" clip-rule="evenodd" d="M17.038 23.5502C20.5927 23.5502 23.4745 20.6684 23.4745 17.1136C23.4745 13.5588 20.5927 10.6771 17.038 10.6771C13.4832 10.6771 10.6014 13.5588 10.6014 17.1136C10.6014 20.6684 13.4832 23.5502 17.038 23.5502ZM17.038 24.686C21.2201 24.686 24.6103 21.2958 24.6103 17.1136C24.6103 12.9315 21.2201 9.54126 17.038 9.54126C12.8558 9.54126 9.46558 12.9315 9.46558 17.1136C9.46558 21.2958 12.8558 24.686 17.038 24.686Z" fill="#E67861"/>
<path d="M29.871 8.19833L28.7077 12.0726L27.9347 10.707L28.7847 7.87023C28.9047 7.47207 28.9047 7.04736 28.7846 6.6492C28.4473 5.53096 27.2673 4.89792 26.1492 5.23523L23.3158 6.08806L21.9456 5.3123L25.8216 4.14893C26.4322 3.96533 27.0833 3.96533 27.6939 4.14893C29.4133 4.66594 30.388 6.47892 29.871 8.19833Z"/>
<path d="M8.25009 29.8195L12.1244 28.6561L10.7587 27.8831L7.92199 28.7332C7.52383 28.8531 7.09912 28.8531 6.70096 28.733C5.58272 28.3957 4.94968 27.2158 5.28699 26.0976L6.13982 23.2642L5.36405 21.894L4.20069 25.77C4.01709 26.3806 4.01709 27.0317 4.20069 27.6423C4.7177 29.3617 6.53068 30.3365 8.25009 29.8195Z"/>
<path d="M23.0363 11.1766C23.2915 11.4317 23.6166 11.6055 23.9705 11.6759C24.3244 11.7463 24.6912 11.7102 25.0246 11.5721C25.358 11.434 25.6429 11.2001 25.8434 10.9001C26.0439 10.6001 26.1509 10.2473 26.1509 9.88647C26.1509 9.52563 26.0439 9.17289 25.8434 8.87285C25.6429 8.57282 25.358 8.33897 25.0246 8.20088C24.6912 8.06279 24.3244 8.02666 23.9705 8.09706C23.6166 8.16746 23.2915 8.34122 23.0363 8.59638C22.6942 8.93853 22.5019 9.40259 22.5019 9.88647C22.5019 10.3704 22.6942 10.8344 23.0363 11.1766ZM24.7565 9.45644C24.8415 9.54149 24.8994 9.64986 24.9229 9.76783C24.9464 9.8858 24.9343 10.0081 24.8883 10.1192C24.8423 10.2303 24.7643 10.3253 24.6643 10.3921C24.5643 10.459 24.4467 10.4946 24.3264 10.4946C24.2061 10.4946 24.0886 10.459 23.9885 10.3921C23.8885 10.3253 23.8106 10.2303 23.7646 10.1192C23.7185 10.0081 23.7065 9.8858 23.7299 9.76783C23.7534 9.64986 23.8113 9.5415 23.8964 9.45644C24.0104 9.34239 24.1651 9.27832 24.3264 9.27832C24.4877 9.27832 24.6424 9.34239 24.7565 9.45644Z" fill="#E67861"/>
<path fill-rule="evenodd" clip-rule="evenodd" d="M23.4647 10.7482C23.6351 10.9186 23.8523 11.0347 24.0887 11.0817C24.3251 11.1288 24.5701 11.1046 24.7928 11.0124C25.0155 10.9201 25.2058 10.7639 25.3397 10.5635C25.4736 10.3631 25.5451 10.1275 25.5451 9.88647C25.5451 9.64544 25.4736 9.40982 25.3397 9.20941C25.2058 9.009 25.0155 8.8528 24.7928 8.76056C24.5701 8.66832 24.3251 8.64419 24.0887 8.69121C23.8523 8.73823 23.6351 8.8543 23.4647 9.02474C23.2361 9.25328 23.1077 9.56326 23.1077 9.88647C23.1077 10.2097 23.2361 10.5197 23.4647 10.7482ZM25.1848 9.02808C25.3546 9.19786 25.4702 9.41416 25.517 9.64964C25.5639 9.88513 25.5398 10.1292 25.448 10.351C25.3561 10.5728 25.2005 10.7624 25.0008 10.8958C24.8012 11.0292 24.5665 11.1004 24.3264 11.1004C24.0863 11.1004 23.8516 11.0292 23.652 10.8958C23.4523 10.7624 23.2968 10.5728 23.2049 10.351C23.113 10.1292 23.0889 9.88513 23.1358 9.64964C23.1826 9.41416 23.2982 9.19786 23.468 9.02808C23.6957 8.80042 24.0045 8.67252 24.3264 8.67252C24.6484 8.67252 24.9571 8.80042 25.1848 9.02808ZM23.9705 11.6759C23.6166 11.6055 23.2915 11.4317 23.0363 11.1766C22.6942 10.8344 22.5019 10.3704 22.5019 9.88647C22.5019 9.40259 22.6942 8.93853 23.0363 8.59638C23.2915 8.34122 23.6166 8.16746 23.9705 8.09706C24.3244 8.02666 24.6912 8.06279 25.0246 8.20088C25.358 8.33897 25.6429 8.57282 25.8434 8.87285C26.0439 9.17288 26.1509 9.52563 26.1509 9.88647C26.1509 10.2473 26.0439 10.6001 25.8434 10.9001C25.6429 11.2001 25.358 11.434 25.0246 11.5721C24.6912 11.7102 24.3244 11.7463 23.9705 11.6759ZM24.9229 9.76783C24.8994 9.64986 24.8415 9.54149 24.7564 9.45644C24.6424 9.34239 24.4877 9.27832 24.3264 9.27832C24.1651 9.27832 24.0104 9.34239 23.8964 9.45644C23.8113 9.54149 23.7534 9.64986 23.7299 9.76783C23.7065 9.8858 23.7185 10.0081 23.7646 10.1192C23.8106 10.2303 23.8885 10.3253 23.9885 10.3921C24.0886 10.459 24.2061 10.4946 24.3264 10.4946C24.4467 10.4946 24.5643 10.459 24.6643 10.3921C24.7643 10.3253 24.8422 10.2303 24.8883 10.1192C24.9343 10.0081 24.9464 9.8858 24.9229 9.76783Z" fill="#E67861"/>
<path d="M11.2833 22.9299C11.0281 22.6747 10.703 22.501 10.3491 22.4306C9.99518 22.3602 9.62834 22.3963 9.29496 22.5344C8.96158 22.6725 8.67664 22.9063 8.47616 23.2064C8.27569 23.5064 8.16869 23.8591 8.16869 24.22C8.16869 24.5808 8.27569 24.9336 8.47616 25.2336C8.67664 25.5336 8.96158 25.7675 9.29496 25.9056C9.62834 26.0436 9.99518 26.0798 10.3491 26.0094C10.703 25.939 11.0281 25.7652 11.2833 25.5101C11.6254 25.1679 11.8176 24.7038 11.8176 24.22C11.8176 23.7361 11.6254 23.272 11.2833 22.9299ZM10.4232 24.65C10.3381 24.7351 10.2298 24.793 10.1118 24.8164C9.99383 24.8399 9.87155 24.8279 9.76042 24.7818C9.6493 24.7358 9.55432 24.6579 9.48749 24.5578C9.42067 24.4578 9.385 24.3403 9.385 24.22C9.385 24.0997 9.42067 23.9821 9.48749 23.8821C9.55432 23.7821 9.6493 23.7041 9.76042 23.6581C9.87155 23.6121 9.99383 23.6 10.1118 23.6235C10.2298 23.647 10.3381 23.7049 10.4232 23.7899C10.5372 23.904 10.6013 24.0587 10.6013 24.22C10.6013 24.3813 10.5372 24.5359 10.4232 24.65Z"/>
<path d="M6.84741 27.9446L6.04424 27.1414L9.04275 24.1429L9.84593 24.9461L6.84741 27.9446Z"/>
<path d="M25.8225 29.8195L21.9482 28.6561L23.3139 27.8831L26.1506 28.7331C26.5488 28.8531 26.9735 28.8531 27.3717 28.733C28.4899 28.3957 29.123 27.2158 28.7856 26.0976L27.9328 23.2642L28.7086 21.894L29.8719 25.77C30.0555 26.3806 30.0555 27.0317 29.8719 27.6423C29.3549 29.3617 27.5419 30.3365 25.8225 29.8195Z"/>
<path d="M4.2016 8.19833L5.36497 12.0726L6.1379 10.707L5.2879 7.87023C5.16791 7.47208 5.16791 7.04736 5.28804 6.64921C5.62535 5.53096 6.80529 4.89792 7.92347 5.23523L10.7568 6.08807L12.127 5.3123L8.251 4.14893C7.64042 3.96533 6.98932 3.96533 6.37873 4.14893C4.65933 4.66594 3.68459 6.47892 4.2016 8.19833Z" fill="#5C6D7D"/>
<path d="M22.8442 22.9847C22.5891 23.2398 22.4153 23.5649 22.3449 23.9188C22.2745 24.2727 22.3107 24.6396 22.4488 24.973C22.5868 25.3063 22.8207 25.5913 23.1207 25.7918C23.4208 25.9922 23.7735 26.0992 24.1343 26.0992C24.4952 26.0992 24.8479 25.9922 25.148 25.7918C25.448 25.5913 25.6818 25.3063 25.8199 24.973C25.958 24.6396 25.9941 24.2727 25.9237 23.9188C25.8534 23.5649 25.6796 23.2398 25.4244 22.9847C25.0823 22.6425 24.6182 22.4503 24.1343 22.4503C23.6505 22.4503 23.1864 22.6425 22.8442 22.9847ZM24.5644 24.7048C24.4793 24.7898 24.371 24.8478 24.253 24.8712C24.135 24.8947 24.0127 24.8827 23.9016 24.8366C23.7905 24.7906 23.6955 24.7126 23.6287 24.6126C23.5618 24.5126 23.5262 24.395 23.5262 24.2748C23.5262 24.1545 23.5618 24.0369 23.6287 23.9369C23.6955 23.8369 23.7905 23.7589 23.9016 23.7129C24.0127 23.6669 24.135 23.6548 24.253 23.6783C24.371 23.7018 24.4793 23.7597 24.5644 23.8447C24.6784 23.9588 24.7425 24.1135 24.7425 24.2748C24.7425 24.4361 24.6784 24.5907 24.5644 24.7048Z"/>
<path d="M11.0912 11.2316C11.3463 10.9765 11.5201 10.6514 11.5905 10.2975C11.6609 9.94354 11.6248 9.5767 11.4867 9.24333C11.3486 8.90995 11.1147 8.625 10.8147 8.42453C10.5147 8.22405 10.1619 8.11705 9.80109 8.11705C9.44024 8.11705 9.0875 8.22405 8.78746 8.42453C8.48743 8.625 8.25358 8.90995 8.11549 9.24332C7.9774 9.5767 7.94127 9.94354 8.01167 10.2975C8.08207 10.6514 8.25583 10.9765 8.51099 11.2316C8.85314 11.5738 9.31721 11.766 9.80109 11.766C10.285 11.766 10.749 11.5738 11.0912 11.2316ZM9.37105 10.3716C9.286 10.2865 9.22808 10.1781 9.20461 10.0602C9.18115 9.94219 9.19319 9.81991 9.23922 9.70879C9.28525 9.59766 9.3632 9.50268 9.46321 9.43586C9.56322 9.36903 9.6808 9.33336 9.80109 9.33336C9.92137 9.33336 10.0389 9.36903 10.139 9.43586C10.239 9.50268 10.3169 9.59766 10.363 9.70879C10.409 9.81991 10.421 9.94219 10.3976 10.0602C10.3741 10.1781 10.3162 10.2865 10.2311 10.3716C10.1171 10.4856 9.96238 10.5497 9.80109 10.5497C9.63979 10.5497 9.48511 10.4856 9.37105 10.3716Z" fill="#E67861"/>
<path fill-rule="evenodd" clip-rule="evenodd" d="M10.6628 10.8033C10.8333 10.6328 10.9493 10.4157 10.9964 10.1793C11.0434 9.94287 11.0192 9.69784 10.927 9.47515C10.8348 9.25247 10.6786 9.06213 10.4781 8.92822C10.2777 8.79431 10.0421 8.72284 9.80109 8.72284C9.56005 8.72284 9.32443 8.79431 9.12402 8.92822C8.92361 9.06213 8.76741 9.25247 8.67517 9.47515C8.58293 9.69783 8.5588 9.94287 8.60582 10.1793C8.65285 10.4157 8.76891 10.6328 8.93935 10.8033C9.1679 11.0318 9.47787 11.1602 9.80109 11.1602C10.1243 11.1602 10.4343 11.0318 10.6628 10.8033ZM8.9427 10.7999C8.77292 10.6301 8.6573 10.4138 8.61046 10.1783C8.56362 9.94286 8.58766 9.69878 8.67954 9.47696C8.77143 9.25514 8.92702 9.06555 9.12665 8.93216C9.32628 8.79877 9.56099 8.72757 9.80109 8.72757C10.0412 8.72757 10.2759 8.79877 10.4755 8.93216C10.6752 9.06555 10.8307 9.25514 10.9226 9.47696C11.0145 9.69878 11.0386 9.94286 10.9917 10.1783C10.9449 10.4138 10.8292 10.6301 10.6595 10.7999C10.4318 11.0276 10.123 11.1555 9.80109 11.1555C9.47913 11.1555 9.17035 11.0276 8.9427 10.7999ZM11.5905 10.2975C11.5201 10.6514 11.3463 10.9765 11.0912 11.2316C10.749 11.5738 10.285 11.766 9.80109 11.766C9.31721 11.766 8.85314 11.5738 8.51099 11.2316C8.25583 10.9765 8.08207 10.6514 8.01167 10.2975C7.94127 9.94354 7.9774 9.5767 8.11549 9.24332C8.25358 8.90995 8.48743 8.625 8.78746 8.42453C9.0875 8.22405 9.44024 8.11705 9.80109 8.11705C10.1619 8.11705 10.5147 8.22405 10.8147 8.42453C11.1147 8.625 11.3486 8.90995 11.4867 9.24333C11.6248 9.5767 11.6609 9.94354 11.5905 10.2975ZM9.20461 10.0602C9.22808 10.1781 9.286 10.2865 9.37105 10.3716C9.48511 10.4856 9.63979 10.5497 9.80109 10.5497C9.96238 10.5497 10.1171 10.4856 10.2311 10.3716C10.3162 10.2865 10.3741 10.1781 10.3976 10.0602C10.421 9.94219 10.409 9.81991 10.363 9.70879C10.3169 9.59766 10.239 9.50268 10.139 9.43586C10.0389 9.36903 9.92137 9.33336 9.80109 9.33336C9.6808 9.33336 9.56322 9.36903 9.46321 9.43586C9.3632 9.50268 9.28525 9.59766 9.23922 9.70879C9.19319 9.81991 9.18115 9.94219 9.20461 10.0602Z" fill="#E67861"/>
<path d="M24.2816 25.001L25.0848 24.1978L28.0833 27.1963L27.2801 27.9995L24.2816 25.001Z"/>
<path d="M32.3253 19.8479L28.7632 21.7648L29.1823 20.2526L31.7892 18.8477C32.1556 18.651 32.4559 18.3507 32.6525 17.9842C33.2047 16.955 32.818 15.673 31.7888 15.1209L29.1823 13.7205L28.762 12.203L32.3253 14.1211C32.8869 14.4231 33.3473 14.8835 33.6492 15.445C34.4994 17.0264 33.9067 18.9976 32.3253 19.8479Z"/>
<path d="M1.74864 19.8476L5.31081 21.7645L4.89168 20.2523L2.28477 18.8475C1.91838 18.6508 1.61806 18.3505 1.42147 17.984C0.869268 16.9548 1.25599 15.6728 2.28517 15.1206L4.89168 13.7202L5.31201 12.2028L1.74864 14.1209C1.18707 14.4228 0.726672 14.8832 0.424749 15.4448C-0.425473 17.0262 0.167253 18.9974 1.74864 19.8476Z"/>
<path d="M25.3865 17.1206C25.3865 17.4815 25.4935 17.8342 25.694 18.1342C25.8944 18.4343 26.1794 18.6681 26.5128 18.8062C26.8461 18.9443 27.213 18.9804 27.5669 18.91C27.9208 18.8396 28.2459 18.6659 28.501 18.4107C28.7562 18.1555 28.93 17.8305 29.0004 17.4765C29.0708 17.1226 29.0346 16.7558 28.8965 16.4224C28.7585 16.089 28.5246 15.8041 28.2246 15.6036C27.9245 15.4031 27.5718 15.2961 27.2109 15.2961C26.7271 15.2961 26.263 15.4884 25.9209 15.8305C25.5787 16.1727 25.3865 16.6367 25.3865 17.1206ZM27.8191 17.1206C27.8191 17.2409 27.7834 17.3585 27.7166 17.4585C27.6498 17.5585 27.5548 17.6364 27.4437 17.6825C27.3326 17.7285 27.2103 17.7405 27.0923 17.7171C26.9743 17.6936 26.866 17.6357 26.7809 17.5506C26.6959 17.4656 26.6379 17.3572 26.6145 17.2393C26.591 17.1213 26.6031 16.999 26.6491 16.8879C26.6951 16.7768 26.7731 16.6818 26.8731 16.6149C26.9731 16.5481 27.0907 16.5125 27.2109 16.5125C27.3722 16.5125 27.5269 16.5765 27.641 16.6906C27.755 16.8046 27.8191 16.9593 27.8191 17.1206Z"/>
<path d="M8.76503 17.1206C8.76503 16.7598 8.65803 16.407 8.45755 16.107C8.25708 15.807 7.97213 15.5731 7.63875 15.435C7.30538 15.2969 6.93854 15.2608 6.58462 15.3312C6.23071 15.4016 5.90562 15.5754 5.65046 15.8305C5.39531 16.0857 5.22154 16.4108 5.15115 16.7647C5.08075 17.1186 5.11688 17.4854 5.25497 17.8188C5.39306 18.1522 5.62691 18.4371 5.92694 18.6376C6.22697 18.8381 6.57971 18.9451 6.94056 18.9451C7.42444 18.9451 7.8885 18.7529 8.23065 18.4107C8.57281 18.0686 8.76503 17.6045 8.76503 17.1206ZM6.94056 17.7288C6.82028 17.7288 6.7027 17.6931 6.60269 17.6263C6.50267 17.5595 6.42473 17.4645 6.3787 17.3533C6.33267 17.2422 6.32062 17.1199 6.34409 17.002C6.36755 16.884 6.42548 16.7756 6.51053 16.6906C6.59558 16.6055 6.70394 16.5476 6.82191 16.5241C6.93988 16.5007 7.06216 16.5127 7.17329 16.5588C7.28442 16.6048 7.3794 16.6827 7.44622 16.7827C7.51305 16.8828 7.54872 17.0003 7.54872 17.1206C7.54872 17.2819 7.48464 17.4366 7.37059 17.5506C7.25654 17.6647 7.10185 17.7288 6.94056 17.7288Z"/>
<path d="M2.0824 17.53L2.0824 16.3942L6.32293 16.3942L6.32293 17.53L2.0824 17.53Z"/>
<path d="M27.8286 17.53L27.8286 16.3942L32.0691 16.3942L32.0691 17.53L27.8286 17.53Z"/>
<path fill-rule="evenodd" clip-rule="evenodd" d="M17.0379 4.58141C10.2001 4.58141 4.65704 10.1245 4.65704 16.9623C4.65704 23.8 10.2001 29.3431 17.0379 29.3431C23.8756 29.3431 29.4187 23.8 29.4187 16.9623C29.4187 10.1245 23.8756 4.58141 17.0379 4.58141ZM3.52118 16.9623C3.52118 9.49719 9.57281 3.44556 17.0379 3.44556C24.503 3.44556 30.5546 9.49719 30.5546 16.9623C30.5546 24.4273 24.503 30.479 17.0379 30.479C9.57281 30.479 3.52118 24.4273 3.52118 16.9623Z"/>
<path d="M16.5079 1.96875H17.6437V6.20928H16.5079V1.96875Z"/>
</g>
<defs>
<clipPath id="clip0_2401_299">
<rect width="34" height="34" fill="white"/>
</clipPath>
</defs>
</svg>
