<svg width="34" height="34" viewBox="0 0 34 34" xmlns="http://www.w3.org/2000/svg">
<g clip-path="url(#clip0_2401_721)">
<path fill-rule="evenodd" clip-rule="evenodd" d="M31.7872 28.7056L30.996 29.997C29.576 32.3149 26.5457 33.0428 24.2277 31.6228L22.9363 30.8316C20.6184 29.4115 19.8905 26.3813 21.3105 24.0633L22.1017 22.7719C23.5218 20.4539 26.5521 19.7261 28.87 21.1461L30.1614 21.9373C32.4794 23.3574 33.2073 26.3876 31.7872 28.7056ZM30.8186 28.1122C31.911 26.3292 31.3511 23.9982 29.568 22.9058L28.2766 22.1147C26.4936 21.0223 24.1626 21.5822 23.0703 23.3653L22.2791 24.6567C21.1867 26.4397 21.7466 28.7707 23.5297 29.863L24.8211 30.6542C26.6041 31.7466 28.9351 31.1867 30.0275 29.4036L30.8186 28.1122Z" fill="#E67861"/>
<path fill-rule="evenodd" clip-rule="evenodd" d="M28.2882 27.894L28.5651 27.4421C29.1113 26.5505 28.8313 25.385 27.9398 24.8389L27.2295 24.4037C26.338 23.8576 25.1725 24.1375 24.6263 25.029L24.3494 25.481C23.8032 26.3725 24.0832 27.538 24.9747 28.0842L25.685 28.5193C26.5765 29.0655 27.742 28.7856 28.2882 27.894ZM29.5336 28.0354C30.4075 26.609 29.9596 24.7442 28.5332 23.8703L27.8229 23.4352C26.3965 22.5613 24.5317 23.0092 23.6578 24.4357L23.3809 24.8876C22.507 26.3141 22.9549 28.1789 24.3814 29.0528L25.0916 29.4879C26.5181 30.3618 28.3829 29.9139 29.2567 28.4874L29.5336 28.0354Z"/>
<path d="M23.7676 32.2288L24.361 31.2603L23.3924 30.6669L22.799 31.6354L23.7676 32.2288Z" fill="#E67861"/>
<path d="M29.8595 22.2852L30.4529 21.3167L29.4843 20.7233L28.891 21.6918L29.8595 22.2852Z" fill="#E67861"/>
<path d="M32.4822 22.1506L32.4851 26.6851L31.4145 25.5377L31.3493 22.0853C31.373 21.6701 31.2738 21.2572 31.064 20.8981C30.4748 19.8895 29.2442 19.5892 28.2358 20.1783L25.0302 21.7152L23.5167 21.281L27.6636 19.1985C28.2144 18.8774 28.8475 18.7253 29.484 18.7613C31.2767 18.8624 32.5833 20.358 32.4822 22.1506Z" fill="#E67861"/>
<path d="M25.4688 33.5983L29.5099 31.5413L28.0015 31.1087L24.8961 32.6187C24.537 32.8283 24.124 32.9275 23.7088 32.9037C22.5427 32.8369 21.7162 31.877 21.783 30.711L21.6963 27.1571L20.6219 26.0059L20.6502 30.6462C20.6143 31.2828 20.7664 31.9159 21.0875 32.4667C21.9918 34.0178 23.9177 34.5026 25.4688 33.5983Z" fill="#E67861"/>
<path fill-rule="evenodd" clip-rule="evenodd" d="M12.7349 10.053L11.9438 11.3444C10.5237 13.6624 7.49344 14.3902 5.17548 12.9702L3.88409 12.179C1.56612 10.7589 0.83824 7.72867 2.25831 5.4107L3.04947 4.11931C4.46954 1.80134 7.49981 1.07346 9.81778 2.49353L11.1092 3.28469C13.4271 4.70476 14.155 7.73504 12.7349 10.053ZM11.7664 9.45963C12.8588 7.67658 12.2989 5.3456 10.5158 4.25324L9.22441 3.46208C7.44136 2.36972 5.11038 2.92963 4.01802 4.71268L3.22686 6.00407C2.1345 7.78712 2.69441 10.1181 4.47745 11.2105L5.76885 12.0016C7.5519 13.094 9.88288 12.5341 10.9752 10.751L11.7664 9.45963Z"/>
<path fill-rule="evenodd" clip-rule="evenodd" d="M9.23601 9.24122L9.51292 8.78923C10.0591 7.89771 9.77914 6.73222 8.88762 6.18604L8.17735 5.7509C7.28583 5.20472 6.12034 5.48467 5.57415 6.3762L5.29725 6.82818C4.75107 7.71971 5.03102 8.8852 5.92255 9.43138L6.63282 9.86651C7.52434 10.4127 8.68983 10.1327 9.23601 9.24122ZM10.4815 9.3826C11.3554 7.95616 10.9074 6.09138 9.48099 5.21749L8.77072 4.78235C7.34428 3.90846 5.4795 4.35639 4.60561 5.78283L4.3287 6.23482C3.45481 7.66125 3.90274 9.52604 5.32918 10.3999L6.03945 10.8351C7.46589 11.709 9.33067 11.261 10.2046 9.83459L10.4815 9.3826Z" fill="#E67861"/>
<path d="M4.71535 13.5762L5.30872 12.6077L4.34017 12.0143L3.7468 12.9828L4.71535 13.5762Z"/>
<path d="M10.8073 3.63237L11.4006 2.66382L10.4321 2.07045L9.83872 3.039L10.8073 3.63237Z"/>
<path d="M13.43 3.49802L13.4329 8.03251L12.3623 6.88514L12.2971 3.43272C12.3208 3.01755 12.2216 2.60458 12.0118 2.24549C11.4226 1.23696 10.192 0.936575 9.18357 1.52572L5.97801 3.06266L4.46452 2.62837L8.61138 0.54596C9.16219 0.22483 9.79528 0.0727583 10.4319 0.108672C12.2245 0.209799 13.5311 1.70542 13.43 3.49802Z"/>
<path d="M6.41665 14.9457L10.4577 12.8887L8.94931 12.4561L5.84391 13.9661C5.4848 14.1758 5.07183 14.275 4.65663 14.2511C3.49053 14.1843 2.66398 13.2244 2.7308 12.0584L2.64409 8.5045L1.56975 7.35338L1.59804 11.9937C1.56213 12.6302 1.7142 13.2633 2.03533 13.8141C2.93963 15.3652 4.86556 15.85 6.41665 14.9457Z"/>
<path d="M15.7611 24.6649C15.7543 24.585 15.7446 24.5057 15.7356 24.4264C15.7191 24.2966 15.6987 24.1674 15.6789 24.0388C15.6517 23.8835 15.6188 23.7305 15.582 23.5792C15.5559 23.471 15.531 23.3627 15.4998 23.2551L15.4942 23.2381C15.4341 23.0341 15.3633 22.8346 15.2862 22.638C15.2754 22.6108 15.2669 22.5813 15.2556 22.5547C15.1723 22.3495 15.0788 22.1501 14.9779 21.954C14.97 21.9381 14.9632 21.9211 14.9547 21.9053C14.8482 21.7024 14.7326 21.5086 14.6085 21.3148C14.6022 21.3057 14.5971 21.2961 14.5909 21.2865C14.4679 21.0995 14.3365 20.9193 14.1976 20.7442C14.1835 20.7289 14.1738 20.7136 14.1625 20.7C14.0344 20.5413 13.8984 20.39 13.7585 20.2427C13.7307 20.2138 13.7058 20.1826 13.6774 20.1543C13.5584 20.033 13.4321 19.9197 13.3046 19.8069C13.2479 19.7576 13.1969 19.7049 13.1397 19.6567C13.0399 19.5734 12.934 19.4986 12.8303 19.4204C12.7396 19.3524 12.6523 19.281 12.5588 19.2176C12.4767 19.1609 12.3888 19.1133 12.3055 19.0612C12.1922 18.9915 12.0857 18.9178 11.9706 18.8549C11.9621 18.8498 11.9531 18.8464 11.9446 18.8419C11.8992 18.8169 11.8505 18.7971 11.8046 18.7733C11.6425 18.6894 11.4793 18.6073 11.3116 18.5359C11.2408 18.5053 11.166 18.4792 11.0934 18.4531C10.9461 18.3965 10.7999 18.3398 10.6492 18.2905C10.5636 18.2633 10.4752 18.2435 10.3879 18.2197C10.2468 18.1806 10.1046 18.1403 9.96181 18.1097C9.86434 18.0888 9.76461 18.0757 9.66601 18.0587C9.53001 18.0361 9.39458 18.0117 9.25744 17.9964C9.14411 17.9834 9.02681 17.9788 8.91121 17.9709C8.79561 17.963 8.66924 17.9545 8.54684 17.9528C8.50717 17.9528 8.46807 17.9465 8.42784 17.9465C8.32017 17.9465 8.21478 17.9579 8.10824 17.963C8.02324 17.9669 7.93824 17.9686 7.85267 17.9754C7.66454 17.9902 7.47981 18.014 7.29621 18.0429C7.25484 18.0491 7.21348 18.0542 7.17154 18.0616C6.9577 18.0993 6.74732 18.1458 6.54027 18.201C6.52667 18.2044 6.51307 18.2061 6.50004 18.2095L6.48021 18.2157C6.25885 18.2769 6.04196 18.3479 5.82968 18.4288L5.77301 18.448C5.56072 18.5308 5.3529 18.6228 5.14967 18.724C5.13211 18.7331 5.11454 18.7404 5.09754 18.7495C4.89864 18.8504 4.70597 18.9609 4.51841 19.0787C4.49687 19.0923 4.47534 19.1042 4.45438 19.1178C4.27758 19.2312 4.10701 19.3536 3.94097 19.4816C3.91037 19.5054 3.87807 19.527 3.84804 19.5513C3.69957 19.6692 3.55791 19.795 3.41964 19.9236C3.37544 19.9644 3.33011 20.0024 3.28761 20.0438C3.17087 20.1571 3.06094 20.2784 2.95157 20.3996C2.89491 20.4631 2.83824 20.5232 2.78158 20.5878C2.69431 20.692 2.61157 20.8025 2.53281 20.9113C2.46707 20.9986 2.39794 21.0813 2.33617 21.1743C2.26761 21.274 2.20811 21.38 2.14464 21.4837C2.08117 21.5874 2.02224 21.6707 1.96841 21.767C1.96444 21.7744 1.96161 21.7823 1.95764 21.7891C1.82617 22.0326 1.70845 22.2832 1.60517 22.5399C1.57627 22.6108 1.55304 22.6822 1.52641 22.7536C1.45331 22.9513 1.38757 23.1502 1.33091 23.3576C1.30881 23.4387 1.28784 23.5191 1.26801 23.6007C1.21927 23.807 1.18017 24.0161 1.14844 24.228C1.13711 24.3034 1.12294 24.3776 1.11444 24.4547C1.0798 24.7394 1.06188 25.0258 1.06061 25.3126C1.06061 25.5285 1.07364 25.7444 1.09347 25.9603C1.10027 26.0402 1.10991 26.1196 1.11897 26.1989C1.13541 26.3287 1.15581 26.4579 1.17564 26.5865C1.20284 26.7418 1.23571 26.8948 1.27254 27.0461C1.29861 27.1543 1.32354 27.2625 1.35471 27.3702L1.36037 27.3872C1.42101 27.5918 1.49184 27.7918 1.56891 27.9884C1.57911 28.0156 1.58761 28.0451 1.59837 28.07C1.68224 28.2763 1.77631 28.4775 1.87774 28.6741C1.88567 28.6888 1.89191 28.7041 1.89927 28.7189C2.00694 28.9236 2.12346 29.1221 2.24891 29.3144C2.25401 29.3224 2.25797 29.3303 2.26307 29.3377C2.38717 29.5269 2.52034 29.7094 2.65974 29.8868C2.66937 29.8987 2.67787 29.9111 2.68751 29.923C2.81671 30.084 2.95497 30.2375 3.09777 30.3871C3.12271 30.4138 3.14594 30.4438 3.17201 30.4687C3.29327 30.5928 3.42248 30.7084 3.55281 30.8235C3.60551 30.8705 3.65537 30.9209 3.70977 30.9663C3.81234 31.0524 3.92227 31.13 4.02994 31.2105C4.11664 31.2757 4.19994 31.3448 4.29061 31.406C4.38128 31.4672 4.46571 31.5137 4.55297 31.5681C4.66177 31.6355 4.76774 31.7075 4.87994 31.7692C4.88731 31.7732 4.89524 31.776 4.90204 31.78C5.14549 31.9115 5.39617 32.0292 5.65287 32.1325C5.72371 32.1614 5.79511 32.1846 5.86651 32.2112C6.06428 32.2843 6.26318 32.3501 6.47058 32.4067C6.55161 32.4288 6.63207 32.4498 6.71368 32.4696C6.91994 32.5184 7.12904 32.5575 7.34097 32.5892C7.41634 32.6005 7.49057 32.6147 7.56764 32.6232C7.85282 32.6586 8.1399 32.6774 8.42727 32.6793C8.64317 32.6793 8.85907 32.6663 9.07498 32.6464C9.15487 32.6396 9.23421 32.63 9.31354 32.6209C9.44331 32.6045 9.57251 32.5841 9.70114 32.5643C9.85641 32.5371 10.0094 32.5042 10.1607 32.4674C10.2684 32.4413 10.3766 32.4169 10.4837 32.3858L10.5007 32.3801C10.7047 32.32 10.9042 32.2492 11.1008 32.1721C11.128 32.1614 11.1575 32.1529 11.1841 32.1415C11.3887 32.0588 11.5881 31.9653 11.7831 31.865L11.8335 31.8406C12.0352 31.7345 12.231 31.6196 12.4206 31.4961C12.4313 31.4893 12.4421 31.4836 12.4529 31.4763C12.6382 31.355 12.8161 31.2247 12.9895 31.0875C13.0054 31.0745 13.0229 31.0632 13.0388 31.0501C13.1946 30.9249 13.3425 30.7912 13.487 30.6535C13.5193 30.6234 13.5533 30.5968 13.5851 30.5645C13.7024 30.4512 13.8117 30.3259 13.9217 30.203C13.9749 30.1463 14.031 30.0896 14.082 30.0267C14.1608 29.9321 14.2322 29.8312 14.3087 29.7326C14.3852 29.634 14.456 29.5445 14.5235 29.4453C14.5728 29.3728 14.6153 29.2957 14.6623 29.2187C14.7377 29.0985 14.8176 28.9807 14.889 28.8554C14.8929 28.8481 14.8958 28.8401 14.8997 28.8328C15.0311 28.5897 15.1487 28.3394 15.2516 28.0831C15.2805 28.0122 15.3038 27.9403 15.3304 27.8689C15.406 27.6713 15.4712 27.4699 15.5259 27.2648C15.548 27.1838 15.569 27.1039 15.5888 27.0223C15.6375 26.816 15.6766 26.6063 15.7084 26.3938C15.7197 26.319 15.7339 26.2454 15.7424 26.17C15.7762 25.8855 15.7934 25.5992 15.7939 25.3126C15.7939 25.0967 15.7809 24.8808 15.7611 24.6649ZM11.8505 22.6635C11.876 22.6312 11.897 22.596 11.9208 22.5626C11.9604 22.5059 12.0018 22.4538 12.0341 22.396C12.0585 22.3569 12.0783 22.315 12.1004 22.2742C12.1304 22.2175 12.1622 22.1671 12.1882 22.111C12.2086 22.0673 12.2245 22.022 12.2421 21.9778C12.2653 21.9211 12.2897 21.8673 12.3089 21.8078C12.3242 21.763 12.3344 21.716 12.3475 21.6701C12.3639 21.6134 12.382 21.5568 12.3951 21.4956C12.4053 21.4485 12.4104 21.4009 12.4177 21.3539C12.4279 21.2944 12.4393 21.2355 12.4449 21.1754C12.4495 21.1267 12.4495 21.0785 12.4517 21.0298C12.4546 20.9697 12.4591 20.9102 12.458 20.8496C12.458 20.8008 12.4512 20.7515 12.4478 20.7022C12.4444 20.6529 12.4438 20.5991 12.437 20.5475C12.454 20.5617 12.4693 20.5776 12.4857 20.5923C12.6628 20.7453 12.8309 20.9082 12.9895 21.0802C13.0218 21.1148 13.053 21.1493 13.0841 21.1845C13.4372 21.5823 13.7384 22.0233 13.9806 22.4969C13.9931 22.5218 14.0044 22.5473 14.0169 22.5722C14.1272 22.7958 14.2236 23.0259 14.3059 23.2613C14.3121 23.2766 14.3206 23.2913 14.3234 23.3072L14.3223 23.3146L13.7539 24.066C13.432 24.493 12.9287 24.7446 12.3939 24.746H10.0309C10.0213 24.7188 10.0088 24.6933 9.99807 24.6666L9.98674 24.6394C9.97824 24.6196 9.97144 24.5992 9.96181 24.5794L11.6329 22.9083C11.71 22.8309 11.7827 22.7492 11.8505 22.6635ZM8.30034 19.0855C8.46241 19.0821 8.62391 19.0855 8.78484 19.0974C8.86588 19.102 8.94804 19.102 9.02851 19.1099C9.25525 19.1311 9.48057 19.1651 9.70341 19.2119C9.76347 19.2244 9.82127 19.2431 9.88077 19.2572C10.0508 19.2986 10.2208 19.3439 10.3862 19.3995C10.4627 19.425 10.537 19.4561 10.6129 19.4822C10.7599 19.5374 10.9047 19.598 11.0475 19.6641C11.0917 19.6845 11.1354 19.706 11.1796 19.7276L11.3133 20.6648C11.3878 21.1943 11.21 21.7281 10.8328 22.107L9.16167 23.7781C9.14184 23.7685 9.12144 23.7617 9.10161 23.7532L9.07441 23.7418C9.04778 23.7311 9.02227 23.7186 8.99508 23.709V21.0456C8.99359 20.8804 8.97765 20.7156 8.94747 20.5532C8.93954 20.5079 8.92934 20.4631 8.91914 20.4183C8.89145 20.295 8.85546 20.1736 8.81147 20.0551C8.79787 20.0183 8.78711 19.9814 8.77237 19.9457C8.7111 19.7995 8.63772 19.6587 8.55307 19.5247C8.53494 19.4969 8.51341 19.4714 8.49641 19.4437C8.42338 19.3376 8.34312 19.2366 8.25614 19.1416C8.24141 19.1252 8.23007 19.1054 8.21477 19.0889C8.24141 19.0889 8.27087 19.0861 8.30034 19.0855ZM3.70411 21.2564V21.2576C3.86965 21.0663 4.04659 20.8852 4.23394 20.7153C4.26341 20.6886 4.29061 20.6586 4.32177 20.6354C4.75152 20.2587 5.23064 19.9425 5.74581 19.6953L5.77244 19.6828C6.03778 19.5568 6.31177 19.45 6.59241 19.3632L6.92107 19.5275C7.49822 19.8135 7.86259 20.4027 7.86061 21.0468V23.7101C7.83341 23.7197 7.80791 23.7322 7.78128 23.743L7.75408 23.7543C7.73424 23.7628 7.71384 23.7696 7.69401 23.7792L6.02291 22.1081C5.90072 21.9887 5.76798 21.8806 5.62624 21.7851C5.60414 21.7698 5.58261 21.754 5.55994 21.7392C5.42338 21.6514 5.27944 21.5756 5.12984 21.5126C5.10434 21.5018 5.07884 21.4922 5.05277 21.482C4.89765 21.4198 4.7375 21.3713 4.57394 21.3369L4.54731 21.3329C4.38489 21.3027 4.22013 21.2865 4.05487 21.2848C4.04127 21.2848 4.02768 21.2802 4.01351 21.2802C3.99934 21.2802 3.99481 21.2802 3.98574 21.2802C3.91264 21.2802 3.83954 21.287 3.76644 21.2938C3.73187 21.2938 3.69731 21.2938 3.66274 21.3006C3.67747 21.2848 3.69108 21.2712 3.70411 21.2564ZM2.32031 25.7303V25.7342C2.28744 25.7722 2.25174 25.8085 2.22114 25.8476C2.20584 25.6685 2.19394 25.4923 2.19394 25.3126C2.19458 25.0854 2.20761 24.8585 2.23304 24.6326C2.23927 24.576 2.25117 24.5193 2.25854 24.466C2.28234 24.296 2.30897 24.126 2.34637 23.9623C2.36111 23.8943 2.38094 23.8285 2.39794 23.7611C2.43648 23.6121 2.47897 23.4642 2.52827 23.318C2.55377 23.242 2.58211 23.1672 2.61101 23.0913C2.66087 22.9604 2.71584 22.8312 2.77477 22.7037C2.79631 22.6567 2.81954 22.6096 2.84221 22.5632L3.77947 22.4294C4.30895 22.3544 4.84304 22.5323 5.22164 22.91L6.89274 24.5811C6.88367 24.6003 6.87687 24.6207 6.86837 24.6377L6.85591 24.6672C6.84514 24.6933 6.83267 24.7188 6.82361 24.7454H4.46061C4.35117 24.7455 4.2418 24.752 4.13307 24.7647C4.09511 24.7692 4.05827 24.7788 4.01974 24.7845C3.95004 24.7958 3.87977 24.8055 3.81121 24.8219C3.76871 24.8321 3.72734 24.8468 3.68484 24.8593C3.62308 24.8769 3.56074 24.8927 3.50067 24.916C3.45704 24.9318 3.41511 24.9522 3.37261 24.9726C3.31594 24.9964 3.25928 25.018 3.20261 25.0457C3.15898 25.0673 3.11817 25.0933 3.07567 25.1171C3.02411 25.146 2.97141 25.1738 2.92154 25.2055C2.87167 25.2373 2.84051 25.2622 2.79971 25.2934C2.75891 25.3245 2.70451 25.3597 2.65917 25.3971C2.61384 25.4345 2.58494 25.4645 2.54584 25.4985C2.50674 25.5325 2.45857 25.5761 2.41834 25.6181C2.37811 25.66 2.35374 25.6917 2.32031 25.7303ZM5.00347 27.9624V27.9663C4.98251 27.993 4.96551 28.023 4.94681 28.0491C4.90261 28.1097 4.85728 28.1698 4.81817 28.2338C4.79721 28.2672 4.78077 28.3035 4.76151 28.3381C4.72808 28.3947 4.69294 28.4571 4.66404 28.5188C4.64534 28.5585 4.63174 28.5993 4.61531 28.6395C4.59037 28.699 4.56431 28.7585 4.54334 28.8197C4.52917 28.8622 4.51954 28.9059 4.50764 28.9489C4.49007 29.0096 4.47081 29.0696 4.45778 29.132C4.44814 29.1773 4.44304 29.2232 4.43567 29.2691C4.42547 29.3297 4.41414 29.3904 4.40791 29.4521C4.40337 29.4997 4.40337 29.5479 4.40111 29.5961C4.40111 29.6567 4.39374 29.7168 4.39488 29.7768C4.39488 29.8267 4.40167 29.876 4.40508 29.9259C4.40847 29.9757 4.40904 30.0284 4.41584 30.0794C4.40054 30.0664 4.38637 30.0522 4.37164 30.0392C4.19243 29.8839 4.02215 29.7185 3.86164 29.5439C3.83104 29.5111 3.80044 29.4776 3.77041 29.4442C3.41794 29.0459 3.11711 28.6048 2.87507 28.1312C2.86261 28.1074 2.85127 28.0825 2.83937 28.0581C2.72909 27.8341 2.63233 27.6036 2.54981 27.3679C2.54414 27.3526 2.53791 27.3379 2.53281 27.322L3.10061 26.5593C3.42269 26.1324 3.92589 25.8808 4.46061 25.8793H6.82361C6.83267 25.9059 6.84514 25.9314 6.85591 25.9575L6.86837 25.987C6.87687 26.0062 6.88367 26.0266 6.89274 26.0436L5.22164 27.7147C5.14422 27.7931 5.0714 27.8757 5.00347 27.9624ZM8.85794 31.5239L8.85681 31.5278C8.64806 31.5428 8.43868 31.5468 8.22951 31.5397C8.15017 31.5397 8.07028 31.5335 7.99151 31.5278C7.78864 31.5139 7.58691 31.4899 7.38631 31.4559C7.33644 31.4474 7.28544 31.4428 7.23614 31.4332C6.98688 31.3845 6.74087 31.3205 6.49947 31.2417C6.44904 31.2252 6.40088 31.2048 6.35101 31.185C6.1621 31.1178 5.97587 31.0413 5.79227 30.9555C5.75261 30.9374 5.71407 30.9187 5.67497 30.8988L5.54238 29.9593C5.46779 29.4298 5.64565 28.896 6.02291 28.5171L7.69401 26.846C7.71384 26.8557 7.73424 26.8625 7.75464 26.8715L7.78128 26.8823C7.80734 26.8931 7.83341 26.9055 7.86061 26.9152V29.2793C7.86075 29.3887 7.8672 29.4981 7.87988 29.6068C7.88441 29.6454 7.89404 29.6822 7.89971 29.7202C7.91104 29.7899 7.92067 29.8596 7.93711 29.9281C7.94731 29.9718 7.96261 30.0137 7.97507 30.0568C7.99264 30.118 8.00851 30.1792 8.03174 30.2392C8.04761 30.2829 8.06857 30.3248 8.08841 30.3684C8.11221 30.4251 8.13431 30.4818 8.16151 30.5384C8.18304 30.5821 8.20911 30.6229 8.23291 30.6654C8.26181 30.7169 8.28957 30.7702 8.32131 30.8201C8.35304 30.8699 8.37797 30.9017 8.40971 30.9425C8.44144 30.9833 8.47601 31.0371 8.51227 31.0819C8.54854 31.1266 8.58084 31.1572 8.61541 31.1952C8.64998 31.2332 8.69191 31.2819 8.73384 31.3221C8.77578 31.3624 8.81034 31.389 8.84717 31.4224C8.88401 31.4559 8.92141 31.4904 8.96051 31.521C8.92594 31.5216 8.89138 31.5216 8.85794 31.5239ZM8.94974 25.5331C8.93019 25.5697 8.90703 25.6043 8.88061 25.6362C8.84434 25.6866 8.80014 25.7308 8.74971 25.7671C8.71776 25.7935 8.6832 25.8167 8.64657 25.8362C8.50632 25.8951 8.34823 25.8951 8.20798 25.8362C8.17135 25.8167 8.13679 25.7935 8.10484 25.7671C8.0583 25.7342 8.01722 25.6942 7.98301 25.6487C7.95248 25.6142 7.92627 25.5761 7.90481 25.5353C7.84595 25.3951 7.84595 25.237 7.90481 25.0967C7.92585 25.054 7.95212 25.014 7.98301 24.9777V24.9789C8.01722 24.9333 8.0583 24.8934 8.10484 24.8604C8.13679 24.834 8.17135 24.8109 8.20798 24.7913C8.34823 24.7324 8.50632 24.7324 8.64657 24.7913C8.6832 24.8109 8.71776 24.834 8.74971 24.8604C8.80014 24.8967 8.84434 24.9409 8.88061 24.9913C8.90703 25.0233 8.93019 25.0578 8.94974 25.0945C9.0086 25.2347 9.0086 25.3928 8.94974 25.5331ZM13.1453 29.3739L13.1442 29.3779C12.9912 29.5549 12.8283 29.7231 12.6563 29.8817C12.6217 29.914 12.5872 29.9451 12.552 29.9763C12.1548 30.3267 11.715 30.6256 11.243 30.866L11.1677 30.9022C10.9441 31.0125 10.714 31.109 10.4786 31.1912C10.4633 31.1969 10.4486 31.2031 10.4327 31.2082L9.67394 30.6393C9.24689 30.3174 8.99529 29.8141 8.99394 29.2793V26.9163C9.02114 26.9067 9.04664 26.8942 9.07327 26.8834L9.10047 26.8721C9.12031 26.8636 9.14071 26.8568 9.16054 26.8472L10.8316 28.5183C10.9538 28.638 11.0866 28.7465 11.2283 28.8424L11.2906 28.886C11.4272 28.9739 11.5711 29.0497 11.7207 29.1127C11.7468 29.124 11.7723 29.1342 11.7984 29.1444C11.9515 29.2055 12.1096 29.2533 12.271 29.2872C12.2874 29.2906 12.3044 29.2923 12.3208 29.2952C12.4845 29.3263 12.6506 29.3428 12.8172 29.3445C12.8252 29.3445 12.8325 29.3445 12.8399 29.3445H12.8501C12.9638 29.3443 13.0773 29.3371 13.1901 29.3229C13.1759 29.3422 13.1601 29.3575 13.1453 29.3739ZM14.6204 25.9994C14.6141 26.0561 14.6022 26.1128 14.5943 26.1694C14.5711 26.3394 14.5444 26.5043 14.5076 26.6692C14.4923 26.7384 14.4725 26.8058 14.4549 26.8738C14.4164 27.0217 14.375 27.1685 14.3257 27.313C14.2996 27.39 14.269 27.466 14.2418 27.5396C14.192 27.67 14.1376 27.798 14.0792 27.925C14.0571 27.9726 14.0339 28.019 14.0112 28.0661L13.0739 28.1998C12.5445 28.274 12.0109 28.0962 11.6318 27.7193L9.96068 26.0482C9.97031 26.0283 9.97711 26.0079 9.98561 25.9881L9.99694 25.9609C10.0077 25.9343 10.0202 25.9088 10.0298 25.8816H12.3939C12.5034 25.8814 12.6127 25.875 12.7215 25.8623C12.76 25.8578 12.7968 25.8481 12.8348 25.8425C12.9045 25.8311 12.9742 25.8215 13.0428 25.8051C13.0864 25.7949 13.1283 25.7796 13.1714 25.7671C13.2326 25.7495 13.2938 25.7337 13.3539 25.7104C13.3975 25.6946 13.4394 25.6736 13.4831 25.6538C13.5397 25.63 13.5964 25.6079 13.6531 25.5807C13.6967 25.5591 13.7375 25.5331 13.78 25.5093C13.8316 25.4804 13.8848 25.4526 13.9347 25.4209C13.9846 25.3891 14.0163 25.3642 14.0571 25.3325C14.0979 25.3007 14.1517 25.2662 14.1965 25.2299C14.2413 25.1936 14.2719 25.1613 14.3098 25.1268C14.3478 25.0922 14.3965 25.0503 14.4368 25.0083C14.477 24.9664 14.5014 24.9335 14.5348 24.895L14.5337 24.9012C14.5665 24.8627 14.6017 24.827 14.6323 24.7879C14.6476 24.9636 14.6595 25.1398 14.6595 25.3194C14.6588 25.5467 14.6458 25.7736 14.6204 25.9994Z"/>
<path d="M5.20306 18.213L5.76562 17.4884L8.47086 19.5886L7.9083 20.3132L5.20306 18.213Z"/>
<path d="M8.5929 30.9891L9.15546 30.2645L11.8607 32.3647L11.2981 33.0894L8.5929 30.9891Z"/>
<path d="M11.1814 17.9316L12.0916 17.8171L12.5194 21.215L11.6093 21.3296L11.1814 17.9316Z"/>
<path d="M4.54432 29.3627L5.45449 29.2481L5.88231 32.6461L4.97214 32.7607L4.54432 29.3627Z"/>
<path d="M1.17465 22.6393L1.06006 21.7291L4.45803 21.3013L4.57262 22.2115L1.17465 22.6393Z"/>
<path d="M12.6057 29.2764L12.4911 28.3663L15.8891 27.9384L16.0037 28.8486L12.6057 29.2764Z"/>
<path d="M1.45601 28.6177L0.731389 28.0551L2.8316 25.3499L3.55622 25.9125L1.45601 28.6177Z"/>
<path d="M14.2322 25.2279L13.5075 24.6653L15.6077 21.9601L16.3324 22.5226L14.2322 25.2279Z"/>
<path d="M7.69677 17.2439L8.49338 16.7284L10.4178 19.7024L9.62123 20.2179L7.69677 17.2439Z" fill="#E67861"/>
<path d="M6.64555 30.8753L7.44216 30.3599L9.36662 33.3339L8.57001 33.8493L6.64555 30.8753Z" fill="#E67861"/>
<path d="M13.63 19.0098L14.5578 19.2086L13.8156 22.6723L12.8878 22.4736L13.63 19.0098Z" fill="#E67861"/>
<path d="M3.24776 27.9054L4.17555 28.1042L3.4334 31.5679L2.50562 31.3691L3.24776 27.9054Z" fill="#E67861"/>
<path d="M2.25264 20.1906L2.45143 19.2628L5.91517 20.0049L5.71638 20.9327L2.25264 20.1906Z" fill="#E67861"/>
<path d="M11.1482 30.5728L11.347 29.645L14.8107 30.3872L14.612 31.315L11.1482 30.5728Z" fill="#E67861"/>
<path d="M0.486696 26.1238L-0.0287833 25.3272L2.94522 23.4027L3.4607 24.1993L0.486696 26.1238Z" fill="#E67861"/>
<path d="M14.1182 27.175L13.6027 26.3784L16.5767 24.454L17.0922 25.2506L14.1182 27.175Z" fill="#E67861"/>
<path d="M32.7743 7.95888C32.7675 7.87898 32.7579 7.79965 32.7488 7.72031C32.7324 7.59055 32.712 7.46135 32.6921 7.33271C32.6649 7.17745 32.6321 7.02445 32.5952 6.87315C32.5692 6.76491 32.5442 6.65668 32.5131 6.54901L32.5074 6.53201C32.4473 6.32801 32.3765 6.12855 32.2994 5.93191C32.2887 5.90471 32.2802 5.87525 32.2688 5.84861C32.1855 5.64348 32.092 5.44401 31.9912 5.24795C31.9832 5.23208 31.9764 5.21508 31.9679 5.19921C31.8614 4.99635 31.7458 4.80255 31.6217 4.60875C31.6155 4.59968 31.6104 4.59005 31.6041 4.58041C31.4812 4.39341 31.3497 4.21321 31.2109 4.03811C31.1967 4.02281 31.1871 4.00751 31.1757 3.99391C31.0477 3.83525 30.9117 3.68395 30.7717 3.53661C30.7439 3.50771 30.719 3.47655 30.6907 3.44821C30.5717 3.32695 30.4453 3.21361 30.3178 3.10085C30.2611 3.05155 30.2101 2.99885 30.1529 2.95068C30.0532 2.86738 29.9472 2.79258 29.8435 2.71438C29.7528 2.64638 29.6656 2.57498 29.5721 2.51151C29.4899 2.45485 29.4021 2.40725 29.3188 2.35511C29.2054 2.28541 29.0989 2.21175 28.9839 2.14885C28.9754 2.14375 28.9663 2.14035 28.9578 2.13581C28.9125 2.11088 28.8637 2.09105 28.8178 2.06725C28.6558 1.98338 28.4926 1.90121 28.3248 1.82981C28.254 1.79921 28.1792 1.77315 28.1067 1.74708C27.9593 1.69041 27.8131 1.63375 27.6624 1.58445C27.5768 1.55725 27.4884 1.53741 27.4012 1.51361C27.2601 1.47451 27.1178 1.43428 26.975 1.40368C26.8776 1.38271 26.7778 1.36968 26.6792 1.35268C26.5432 1.33001 26.4078 1.30565 26.2707 1.29035C26.1573 1.27731 26.04 1.27278 25.9244 1.26485C25.8088 1.25691 25.6825 1.24841 25.5601 1.24671C25.5204 1.24671 25.4813 1.24048 25.4411 1.24048C25.3334 1.24048 25.228 1.25181 25.1215 1.25691C25.0365 1.26088 24.9515 1.26258 24.8659 1.26938C24.6778 1.28411 24.493 1.30791 24.3094 1.33681C24.2681 1.34305 24.2267 1.34815 24.1848 1.35551C23.9709 1.39327 23.7606 1.43973 23.5535 1.49491C23.5399 1.49831 23.5263 1.50001 23.5133 1.50341L23.4934 1.50965C23.2721 1.57085 23.0552 1.64189 22.8429 1.72271L22.7862 1.74198C22.574 1.82471 22.3661 1.91672 22.1629 2.01795C22.1453 2.02701 22.1278 2.03438 22.1108 2.04345C21.9119 2.14431 21.7192 2.25481 21.5316 2.37268C21.5101 2.38628 21.4886 2.39818 21.4676 2.41178C21.2908 2.52511 21.1203 2.64751 20.9542 2.77558C20.9236 2.79938 20.8913 2.82091 20.8613 2.84528C20.7128 2.96315 20.5712 3.08895 20.4329 3.21758C20.3887 3.25838 20.3434 3.29635 20.3009 3.33771C20.1841 3.45105 20.0742 3.57231 19.9648 3.69358C19.9082 3.75705 19.8515 3.81711 19.7948 3.88171C19.7076 3.98598 19.6248 4.09648 19.5461 4.20528C19.4803 4.29255 19.4112 4.37528 19.3494 4.46821C19.2809 4.56795 19.2214 4.67391 19.1579 4.77761C19.0944 4.88131 19.0355 4.96461 18.9817 5.06095C18.9777 5.06831 18.9749 5.07625 18.9709 5.08305C18.8394 5.3265 18.7217 5.57718 18.6184 5.83388C18.5895 5.90471 18.5663 5.97611 18.5397 6.04751C18.4666 6.24528 18.4008 6.44418 18.3442 6.65158C18.3221 6.73261 18.3011 6.81308 18.2813 6.89468C18.2325 7.10095 18.1934 7.31005 18.1617 7.52198C18.1504 7.59735 18.1362 7.67158 18.1277 7.74865C18.093 8.03333 18.0751 8.31978 18.0739 8.60658C18.0739 8.82248 18.0869 9.03838 18.1067 9.25428C18.1135 9.33418 18.1232 9.41351 18.1322 9.49285C18.1487 9.62261 18.1691 9.75181 18.1889 9.88045C18.2161 10.0357 18.249 10.1887 18.2858 10.34C18.3119 10.4482 18.3368 10.5565 18.368 10.6641L18.3736 10.6811C18.4343 10.8857 18.5051 11.0857 18.5822 11.2824C18.5924 11.3096 18.6009 11.339 18.6116 11.364C18.6955 11.5702 18.7896 11.7714 18.891 11.968C18.8989 11.9828 18.9052 11.9981 18.9125 12.0128C19.0202 12.2176 19.1367 12.4161 19.2622 12.6084C19.2673 12.6163 19.2712 12.6242 19.2763 12.6316C19.4004 12.8209 19.5336 13.0033 19.673 13.1807C19.6826 13.1926 19.6911 13.2051 19.7008 13.217C19.83 13.3779 19.9682 13.5315 20.111 13.6811C20.136 13.7077 20.1592 13.7377 20.1853 13.7627C20.3065 13.8868 20.4357 14.0024 20.5661 14.1174C20.6188 14.1644 20.6686 14.2149 20.723 14.2602C20.8256 14.3463 20.9355 14.424 21.0432 14.5044C21.1299 14.5696 21.2132 14.6387 21.3039 14.6999C21.3945 14.7611 21.479 14.8076 21.5662 14.862C21.675 14.9294 21.781 15.0014 21.8932 15.0632C21.9005 15.0671 21.9085 15.07 21.9153 15.0739C22.1587 15.2054 22.4094 15.3231 22.6661 15.4264C22.7369 15.4553 22.8083 15.4785 22.8797 15.5052C23.0775 15.5783 23.2764 15.644 23.4838 15.7007C23.5648 15.7228 23.6453 15.7437 23.7269 15.7636C23.9332 15.8123 24.1423 15.8514 24.3542 15.8831C24.4296 15.8945 24.5038 15.9086 24.5809 15.9171C24.8661 15.9526 25.1531 15.9713 25.4405 15.9732C25.6564 15.9732 25.8723 15.9602 26.0882 15.9404C26.1681 15.9336 26.2474 15.9239 26.3268 15.9149C26.4565 15.8984 26.5857 15.878 26.7144 15.8582C26.8696 15.831 27.0226 15.7981 27.1739 15.7613C27.2816 15.7352 27.3898 15.7109 27.4969 15.6797L27.5139 15.674C27.7179 15.614 27.9174 15.5431 28.114 15.4661C28.1412 15.4553 28.1707 15.4468 28.1973 15.4355C28.4019 15.3527 28.6014 15.2592 28.7963 15.1589L28.8467 15.1346C29.0485 15.0284 29.2442 14.9136 29.4338 14.79C29.4446 14.7832 29.4553 14.7776 29.4661 14.7702C29.6514 14.6489 29.8293 14.5186 30.0027 14.3815C30.0186 14.3684 30.0362 14.3571 30.052 14.3441C30.2079 14.2188 30.3558 14.0851 30.5003 13.9474C30.5326 13.9174 30.5666 13.8907 30.5983 13.8584C30.7156 13.7451 30.825 13.6199 30.9349 13.4969C30.9882 13.4402 31.0443 13.3836 31.0953 13.3207C31.174 13.226 31.2454 13.1252 31.3219 13.0266C31.3984 12.928 31.4693 12.8384 31.5367 12.7393C31.586 12.6667 31.6285 12.5897 31.6755 12.5126C31.7509 12.3925 31.8308 12.2746 31.9022 12.1494C31.9062 12.142 31.909 12.1341 31.913 12.1267C32.0444 11.8837 32.1619 11.6334 32.2649 11.377C32.2938 11.3062 32.317 11.2342 32.3436 11.1628C32.4192 10.9653 32.4844 10.7639 32.5391 10.5587C32.5612 10.4777 32.5822 10.3978 32.602 10.3162C32.6508 10.1099 32.6899 9.90028 32.7216 9.68778C32.7329 9.61298 32.7471 9.53931 32.7556 9.46395C32.7895 9.17941 32.8067 8.8931 32.8072 8.60658C32.8072 8.39068 32.7941 8.17478 32.7743 7.95888ZM28.8637 5.95741C28.8892 5.92511 28.9102 5.88998 28.934 5.85655C28.9737 5.79988 29.015 5.74775 29.0473 5.68995C29.0717 5.65085 29.0915 5.60891 29.1136 5.56811C29.1437 5.51145 29.1754 5.46101 29.2015 5.40491C29.2219 5.36128 29.2377 5.31595 29.2553 5.27175C29.2785 5.21508 29.3029 5.16125 29.3222 5.10175C29.3375 5.05698 29.3477 5.00995 29.3607 4.96405C29.3771 4.90738 29.3953 4.85071 29.4083 4.78951C29.4185 4.74248 29.4236 4.69488 29.431 4.64785C29.4412 4.58835 29.4525 4.52941 29.4582 4.46935C29.4627 4.42061 29.4627 4.37245 29.465 4.32371C29.4678 4.26365 29.4723 4.20415 29.4712 4.14351C29.4712 4.09478 29.4644 4.04548 29.461 3.99618C29.4576 3.94688 29.457 3.89305 29.4502 3.84148C29.4672 3.85565 29.4825 3.87151 29.499 3.88625C29.676 4.03925 29.8441 4.20216 30.0027 4.37415C30.035 4.40871 30.0662 4.44328 30.0974 4.47841C30.4504 4.87628 30.7516 5.31729 30.9938 5.79081C31.0063 5.81575 31.0176 5.84125 31.0301 5.86618C31.1404 6.08973 31.2369 6.31987 31.3191 6.55525C31.3253 6.57055 31.3338 6.58528 31.3367 6.60115L31.3355 6.60851L30.7672 7.35991C30.4452 7.78697 29.942 8.03857 29.4072 8.03991H27.0442C27.0345 8.01271 27.0221 7.98721 27.0113 7.96058L27 7.93338C26.9915 7.91355 26.9847 7.89315 26.975 7.87331L28.6461 6.20221C28.7233 6.12486 28.796 6.04312 28.8637 5.95741ZM25.3136 2.37948C25.4756 2.37608 25.6371 2.37948 25.7981 2.39138C25.8791 2.39591 25.9613 2.39591 26.0417 2.40385C26.2685 2.42503 26.4938 2.4591 26.7166 2.50585C26.7767 2.51831 26.8345 2.53701 26.894 2.55118C27.064 2.59255 27.234 2.63788 27.3995 2.69341C27.476 2.71891 27.5502 2.75008 27.6261 2.77615C27.7731 2.83133 27.918 2.89196 28.0608 2.95805C28.105 2.97845 28.1486 2.99998 28.1928 3.02151L28.3265 3.95878C28.4011 4.48826 28.2233 5.02206 27.846 5.40095L26.1749 7.07205C26.1551 7.06241 26.1347 7.05561 26.1148 7.04711L26.0876 7.03578C26.061 7.02501 26.0355 7.01255 26.0083 7.00291V4.33958C26.0068 4.17432 25.9909 4.00957 25.9607 3.84715C25.9528 3.80181 25.9426 3.75705 25.9324 3.71228C25.9047 3.58896 25.8687 3.46755 25.8247 3.34905C25.8111 3.31221 25.8003 3.27538 25.7856 3.23968C25.7243 3.09348 25.651 2.95266 25.5663 2.81865C25.5482 2.79088 25.5266 2.76538 25.5096 2.73761C25.4366 2.6315 25.3564 2.53057 25.2694 2.43558C25.2546 2.41915 25.2433 2.39931 25.228 2.38288C25.2546 2.38288 25.2841 2.38005 25.3136 2.37948ZM20.7174 4.55038V4.55151C20.8829 4.36026 21.0598 4.17914 21.2472 4.00921C21.2767 3.98258 21.3038 3.95255 21.335 3.92931C21.7648 3.55269 22.2439 3.23642 22.759 2.98921L22.7857 2.97675C23.051 2.85073 23.325 2.74392 23.6056 2.65715L23.9343 2.82148C24.5115 3.10743 24.8758 3.69662 24.8738 4.34071V7.00405C24.8466 7.01368 24.8211 7.02615 24.7945 7.03691L24.7673 7.04825C24.7475 7.05675 24.7271 7.06355 24.7072 7.07318L23.0361 5.40208C22.914 5.28265 22.7812 5.17456 22.6395 5.07908C22.6174 5.06378 22.5958 5.04791 22.5732 5.03318C22.4366 4.94535 22.2927 4.86955 22.1431 4.80651C22.1176 4.79575 22.0921 4.78611 22.066 4.77591C21.9109 4.71372 21.7507 4.6652 21.5872 4.63085L21.5605 4.62688C21.3981 4.59663 21.2334 4.58048 21.0681 4.57871C21.0545 4.57871 21.0409 4.57418 21.0268 4.57418C21.0126 4.57418 21.0081 4.57418 20.999 4.57418C20.9259 4.57418 20.8528 4.58098 20.7797 4.58778C20.7451 4.58778 20.7106 4.58778 20.676 4.59458C20.6907 4.57871 20.7043 4.56511 20.7174 4.55038ZM19.3336 9.02421V9.02818C19.3007 9.06615 19.265 9.10241 19.2344 9.14151C19.2191 8.96245 19.2072 8.78621 19.2072 8.60658C19.2078 8.37935 19.2209 8.1524 19.2463 7.92658C19.2525 7.86991 19.2644 7.81325 19.2718 7.75998C19.2956 7.58998 19.3222 7.41998 19.3596 7.25621C19.3744 7.18821 19.3942 7.12248 19.4112 7.05505C19.4497 6.90601 19.4922 6.75811 19.5415 6.61191C19.567 6.53598 19.5954 6.46118 19.6243 6.38525C19.6741 6.25435 19.7291 6.12515 19.788 5.99765C19.8096 5.95061 19.8328 5.90358 19.8555 5.85711L20.7927 5.72338C21.3222 5.6483 21.8563 5.82623 22.2349 6.20391L23.906 7.87501C23.8969 7.89428 23.8901 7.91468 23.8816 7.93168L23.8691 7.96115C23.8584 7.98721 23.8459 8.01271 23.8368 8.03935H21.4739C21.3644 8.03949 21.255 8.04593 21.1463 8.05861C21.1084 8.06315 21.0715 8.07278 21.033 8.07845C20.9633 8.08978 20.893 8.09941 20.8245 8.11585C20.782 8.12605 20.7406 8.14078 20.6981 8.15325C20.6363 8.17081 20.574 8.18668 20.5139 8.20991C20.4703 8.22578 20.4284 8.24618 20.3859 8.26658C20.3292 8.29038 20.2725 8.31191 20.2159 8.33968C20.1722 8.36121 20.1314 8.38728 20.0889 8.41108C20.0374 8.43998 19.9847 8.46775 19.9348 8.49948C19.8849 8.53121 19.8538 8.55615 19.813 8.58731C19.7722 8.61848 19.7178 8.65361 19.6724 8.69101C19.6271 8.72841 19.5982 8.75845 19.5591 8.79245C19.52 8.82645 19.4718 8.87008 19.4316 8.91201C19.3914 8.95395 19.367 8.98568 19.3336 9.02421ZM22.0167 11.2563V11.2603C21.9957 11.2869 21.9787 11.3169 21.96 11.343C21.9158 11.4036 21.8705 11.4637 21.8314 11.5277C21.8104 11.5612 21.794 11.5974 21.7747 11.632C21.7413 11.6887 21.7062 11.751 21.6773 11.8128C21.6586 11.8524 21.645 11.8932 21.6286 11.9335C21.6036 11.993 21.5775 12.0525 21.5566 12.1137C21.5424 12.1562 21.5328 12.1998 21.5209 12.2429C21.5033 12.3035 21.4841 12.3636 21.471 12.4259C21.4614 12.4712 21.4563 12.5171 21.4489 12.563C21.4387 12.6237 21.4274 12.6843 21.4211 12.7461C21.4166 12.7937 21.4166 12.8418 21.4144 12.89C21.4144 12.9506 21.407 13.0107 21.4081 13.0708C21.4081 13.1206 21.4149 13.1699 21.4183 13.2198C21.4217 13.2697 21.4223 13.3224 21.4291 13.3734C21.4138 13.3603 21.3996 13.3462 21.3849 13.3331C21.2057 13.1778 21.0354 13.0125 20.8749 12.8379C20.8443 12.805 20.8137 12.7716 20.7837 12.7381C20.4312 12.3399 20.1304 11.8987 19.8883 11.4252C19.8759 11.4014 19.8645 11.3764 19.8526 11.3521C19.7423 11.128 19.6456 10.8975 19.5631 10.6619C19.5574 10.6466 19.5512 10.6318 19.5461 10.616L20.1139 9.85325C20.4359 9.42633 20.9391 9.17473 21.4739 9.17325H23.8368C23.8459 9.19988 23.8584 9.22538 23.8691 9.25145L23.8816 9.28091C23.8901 9.30018 23.8969 9.32058 23.906 9.33758L22.2349 11.0087C22.1575 11.087 22.0846 11.1697 22.0167 11.2563ZM25.8712 14.8178L25.87 14.8218C25.6613 14.8368 25.4519 14.8408 25.2427 14.8337C25.1634 14.8337 25.0835 14.8274 25.0047 14.8218C24.8019 14.8078 24.6001 14.7838 24.3995 14.7498C24.3497 14.7413 24.2987 14.7368 24.2494 14.7271C24.0001 14.6784 23.7541 14.6145 23.5127 14.5356C23.4623 14.5192 23.4141 14.4988 23.3642 14.4789C23.1753 14.4117 22.9891 14.3352 22.8055 14.2494C22.7658 14.2313 22.7273 14.2126 22.6882 14.1928L22.5556 13.2532C22.481 12.7238 22.6589 12.19 23.0361 11.8111L24.7072 10.14C24.7271 10.1496 24.7475 10.1564 24.7679 10.1655L24.7945 10.1762C24.8206 10.187 24.8466 10.1995 24.8738 10.2091V12.5732C24.874 12.6827 24.8804 12.7921 24.8931 12.9008C24.8976 12.9393 24.9073 12.9761 24.9129 13.0141C24.9243 13.0838 24.9339 13.1535 24.9503 13.2221C24.9605 13.2657 24.9758 13.3076 24.9883 13.3507C25.0059 13.4119 25.0217 13.4731 25.045 13.5332C25.0608 13.5768 25.0818 13.6187 25.1016 13.6624C25.1254 13.719 25.1475 13.7757 25.1747 13.8324C25.1963 13.876 25.2223 13.9168 25.2461 13.9593C25.275 14.0109 25.3028 14.0641 25.3345 14.114C25.3663 14.1639 25.3912 14.1956 25.4229 14.2364C25.4547 14.2772 25.4892 14.331 25.5255 14.3758C25.5618 14.4206 25.5941 14.4512 25.6286 14.4891C25.6632 14.5271 25.7051 14.5758 25.7471 14.6161C25.789 14.6563 25.8236 14.6829 25.8604 14.7164C25.8972 14.7498 25.9346 14.7844 25.9737 14.815C25.9392 14.8155 25.9046 14.8155 25.8712 14.8178ZM25.963 8.82701C25.9434 8.86363 25.9203 8.8982 25.8938 8.93015C25.8576 8.98058 25.8134 9.02478 25.7629 9.06105C25.731 9.08747 25.6964 9.11063 25.6598 9.13018C25.5196 9.18904 25.3615 9.18904 25.2212 9.13018C25.1846 9.11063 25.15 9.08747 25.1181 9.06105C25.0715 9.02811 25.0305 8.98816 24.9962 8.94261C24.9657 8.90812 24.9395 8.87008 24.918 8.82928C24.8592 8.68903 24.8592 8.53093 24.918 8.39068C24.9391 8.34797 24.9654 8.30795 24.9962 8.27168V8.27281C25.0305 8.22727 25.0715 8.18732 25.1181 8.15438C25.15 8.12796 25.1846 8.1048 25.2212 8.08525C25.3615 8.02638 25.5196 8.02638 25.6598 8.08525C25.6964 8.1048 25.731 8.12796 25.7629 8.15438C25.8134 8.19065 25.8576 8.23485 25.8938 8.28528C25.9203 8.31723 25.9434 8.35179 25.963 8.38841C26.0218 8.52866 26.0218 8.68676 25.963 8.82701ZM30.1586 12.6679L30.1574 12.6718C30.0044 12.8489 29.8415 13.017 29.6695 13.1756C29.635 13.2079 29.6004 13.2391 29.5653 13.2702C29.168 13.6207 28.7282 13.9196 28.2563 14.1599L28.1809 14.1962C27.9573 14.3065 27.7272 14.4029 27.4918 14.4852C27.4765 14.4908 27.4618 14.4971 27.4459 14.5022L26.6872 13.9332C26.2601 13.6113 26.0085 13.108 26.0072 12.5732V10.2102C26.0344 10.2006 26.0599 10.1881 26.0865 10.1774L26.1137 10.166C26.1335 10.1575 26.1539 10.1507 26.1738 10.1411L27.8449 11.8122C27.9671 11.932 28.0998 12.0404 28.2415 12.1363L28.3039 12.18C28.4404 12.2678 28.5843 12.3436 28.734 12.4066C28.76 12.418 28.7855 12.4282 28.8116 12.4384C28.9648 12.4994 29.1229 12.5473 29.2842 12.5812C29.3006 12.5846 29.3176 12.5863 29.3341 12.5891C29.4978 12.6203 29.6639 12.6368 29.8305 12.6384C29.8384 12.6384 29.8458 12.6384 29.8531 12.6384H29.8633C29.977 12.6383 30.0906 12.631 30.2033 12.6169C30.1892 12.6361 30.1733 12.6514 30.1586 12.6679ZM31.6336 9.29338C31.6274 9.35005 31.6155 9.40671 31.6075 9.46338C31.5843 9.63338 31.5577 9.79828 31.5208 9.96318C31.5055 10.0323 31.4857 10.0997 31.4681 10.1677C31.4296 10.3156 31.3882 10.4624 31.3389 10.6069C31.3129 10.684 31.2823 10.7599 31.2551 10.8336C31.2052 10.9639 31.1508 11.092 31.0924 11.2189C31.0703 11.2665 31.0471 11.313 31.0244 11.36L30.0872 11.4937C29.5578 11.5679 29.0241 11.3901 28.645 11.0132L26.9739 9.34211C26.9835 9.32228 26.9903 9.30188 26.9988 9.28205L27.0102 9.25485C27.0209 9.22821 27.0334 9.20271 27.043 9.17551H29.4072C29.5166 9.17537 29.626 9.16893 29.7347 9.15625C29.7732 9.15171 29.8101 9.14208 29.848 9.13641C29.9177 9.12508 29.9874 9.11545 30.056 9.09901C30.0996 9.08881 30.1416 9.07351 30.1846 9.06105C30.2458 9.04348 30.307 9.02761 30.3671 9.00438C30.4107 8.98851 30.4527 8.96755 30.4963 8.94771C30.553 8.92391 30.6096 8.90181 30.6663 8.87461C30.7099 8.85308 30.7507 8.82701 30.7932 8.80321C30.8448 8.77431 30.8981 8.74655 30.9479 8.71481C30.9978 8.68308 31.0295 8.65815 31.0703 8.62641C31.1111 8.59468 31.165 8.56011 31.2097 8.52385C31.2545 8.48758 31.2851 8.45528 31.3231 8.42071C31.361 8.38615 31.4098 8.34421 31.45 8.30228C31.4902 8.26035 31.5146 8.22748 31.548 8.18895L31.5469 8.19518C31.5798 8.15665 31.6149 8.12095 31.6455 8.08185C31.6608 8.25751 31.6727 8.43375 31.6727 8.61338C31.6721 8.84061 31.659 9.06756 31.6336 9.29338Z" fill="#E67861"/>
<path d="M22.2163 1.50694L22.7789 0.782327L25.4841 2.88254L24.9215 3.60716L22.2163 1.50694Z" fill="#E67861"/>
<path d="M25.6061 14.2831L26.1687 13.5585L28.8739 15.6587L28.3114 16.3833L25.6061 14.2831Z" fill="#E67861"/>
<path d="M28.1947 1.2256L29.1048 1.11101L29.5327 4.50897L28.6225 4.62357L28.1947 1.2256Z" fill="#E67861"/>
<path d="M21.5576 12.6567L22.4677 12.5421L22.8955 15.94L21.9854 16.0546L21.5576 12.6567Z" fill="#E67861"/>
<path d="M18.1879 5.93325L18.0733 5.02308L21.4713 4.59527L21.5859 5.50544L18.1879 5.93325Z" fill="#E67861"/>
<path d="M29.6189 12.5704L29.5044 11.6602L32.9023 11.2324L33.0169 12.1426L29.6189 12.5704Z" fill="#E67861"/>
<path d="M18.4692 11.9116L17.7446 11.3491L19.8448 8.64385L20.5695 9.20641L18.4692 11.9116Z" fill="#E67861"/>
<path d="M31.2454 8.52181L30.5208 7.95925L32.621 5.25402L33.3456 5.81657L31.2454 8.52181Z" fill="#E67861"/>
<path d="M24.71 0.537816L25.5066 0.0223359L27.4311 2.99634L26.6345 3.51182L24.71 0.537816Z"/>
<path d="M23.6588 14.1693L24.4554 13.6538L26.3799 16.6278L25.5833 17.1433L23.6588 14.1693Z"/>
<path d="M30.6432 2.30377L31.571 2.50255L30.8289 5.96629L29.9011 5.76751L30.6432 2.30377Z"/>
<path d="M20.261 11.1993L21.1888 11.3981L20.4467 14.8619L19.5189 14.6631L20.261 11.1993Z"/>
<path d="M19.2659 3.48453L19.4647 2.55674L22.9284 3.29888L22.7296 4.22667L19.2659 3.48453Z"/>
<path d="M28.1615 13.8668L28.3603 12.939L31.824 13.6811L31.6252 14.6089L28.1615 13.8668Z"/>
<path d="M17.4999 9.41776L16.9845 8.62115L19.9585 6.69669L20.474 7.4933L17.4999 9.41776Z"/>
<path d="M31.1314 10.469L30.6159 9.67236L33.5899 7.7479L34.1054 8.54451L31.1314 10.469Z"/>
</g>
<defs>
<clipPath id="clip0_2401_721">
<rect width="34" height="34" fill="white"/>
</clipPath>
</defs>
</svg>
