<svg width="34" height="34" viewBox="0 0 34 34" xmlns="http://www.w3.org/2000/svg">
<path fill-rule="evenodd" clip-rule="evenodd" d="M9.11753 1.03183L15.7035 7.61785C17.0343 8.94859 17.0343 11.1061 15.7035 12.4369L12.4373 15.7031C11.1066 17.0339 8.94901 17.0339 7.61827 15.7031L1.03225 9.11711C-0.298489 7.78637 -0.298489 5.62881 1.03225 4.29807L4.29849 1.03183C5.62923 -0.298907 7.78679 -0.298907 9.11753 1.03183ZM8.31435 1.83501C7.42719 0.947846 5.98882 0.947846 5.10166 1.83501L1.83542 5.10124C0.948264 5.9884 0.948264 7.42677 1.83542 8.31393L8.42144 14.9C9.3086 15.7871 10.747 15.7871 11.6341 14.9L14.9004 11.6337C15.7875 10.7466 15.7875 9.30819 14.9004 8.42102L8.31435 1.83501Z"/>
<path fill-rule="evenodd" clip-rule="evenodd" d="M10.9968 15.6405L10.2817 16.523L11.911 17.8433C12.369 18.2756 13.0899 18.2676 13.5382 17.8193L13.5387 17.8188L17.7592 13.5776C17.7594 13.5774 17.7596 13.5772 17.7597 13.577C18.2067 13.1295 18.2153 12.4108 17.7854 11.9528L16.5225 10.3618L15.6329 11.068L16.933 12.7059L16.956 12.7289C16.9689 12.7418 16.9689 12.7615 16.956 12.7744L16.9555 12.7749L12.735 17.0161C12.7349 17.0162 12.7349 17.0163 12.7348 17.0163C12.7219 17.029 12.7023 17.0289 12.6895 17.0161L12.6685 16.9951L10.9968 15.6405Z"/>
<path fill-rule="evenodd" clip-rule="evenodd" d="M5.13677 2.94099C5.95 2.12776 7.26851 2.12776 8.08173 2.94099L12.7401 7.5994C13.5534 8.41263 13.5534 9.73113 12.7401 10.5444L10.5448 12.7397C9.73156 13.5529 8.41306 13.5529 7.59983 12.7397L2.94144 8.0813C2.12821 7.26807 2.12821 5.94956 2.94144 5.13633L5.13677 2.94099ZM7.27856 3.74416C6.90891 3.37451 6.30959 3.37451 5.93994 3.74416L3.74461 5.9395C3.37496 6.30915 3.37496 6.90848 3.74461 7.27813L8.403 11.9365C8.77265 12.3062 9.37197 12.3062 9.74162 11.9365L11.937 9.74119C12.3066 9.37154 12.3066 8.77222 11.937 8.40257L7.27856 3.74416Z" fill="#E67861"/>
<path d="M10.6703 14.3146L9.86713 13.5115L9.06395 14.3146L9.86713 15.1178L10.6703 14.3146Z"/>
<path d="M15.0648 9.92011L14.2616 9.11694L13.4584 9.92011L14.2616 10.7233L15.0648 9.92011Z"/>
<path d="M13.5412 11.6315L12.738 10.8284L11.1316 12.4347L11.9348 13.2379L13.5412 11.6315Z"/>
<path fill-rule="evenodd" clip-rule="evenodd" d="M26.2554 30.9524L25.5403 31.8348L27.1666 33.1527C27.6246 33.585 28.3455 33.5771 28.7938 33.1287L28.7943 33.1282L33.0148 28.887C33.015 28.8868 33.0152 28.8866 33.0153 28.8865C33.4623 28.4389 33.4709 27.7202 33.041 27.2622L31.7677 25.6581L30.8781 26.3643L32.1886 28.0153L32.2116 28.0383C32.2245 28.0512 32.2245 28.071 32.2116 28.0838L32.2111 28.0843L27.9906 32.3256C27.9906 32.3256 27.9905 32.3257 27.9904 32.3257C27.9776 32.3384 27.9579 32.3384 27.9451 32.3256L27.9241 32.3046L26.2554 30.9524Z"/>
<path fill-rule="evenodd" clip-rule="evenodd" d="M24.4878 16.4781L31.0738 23.0641C32.4046 24.3949 32.4046 26.5525 31.0738 27.8832L27.8076 31.1494C26.4769 32.4802 24.3193 32.4802 22.9886 31.1494L16.4026 24.5634C15.0718 23.2327 15.0718 21.0751 16.4026 19.7444L19.6688 16.4781C20.9995 15.1474 23.1571 15.1474 24.4878 16.4781ZM23.6847 17.2813C22.7975 16.3941 21.3591 16.3941 20.472 17.2813L17.2057 20.5475C16.3186 21.4347 16.3186 22.8731 17.2057 23.7602L23.7917 30.3463C24.6789 31.2334 26.1173 31.2334 27.0044 30.3463L30.2707 27.08C31.1578 26.1929 31.1578 24.7545 30.2707 23.8673L23.6847 17.2813Z"/>
<path fill-rule="evenodd" clip-rule="evenodd" d="M26.0942 22.9034L24.6485 21.4577C23.9092 20.7184 22.7106 20.7184 21.9713 21.4577L21.3823 22.0467C20.643 22.786 20.643 23.9846 21.3823 24.7239L22.828 26.1696C23.5673 26.9089 24.7659 26.9089 25.5052 26.1696L26.0942 25.5806C26.8335 24.8413 26.8335 23.6427 26.0942 22.9034ZM25.4517 20.6545C24.2688 19.4716 22.351 19.4716 21.1681 20.6545L20.5791 21.2435C19.3962 22.4264 19.3962 24.3442 20.5791 25.5271L22.0248 26.9728C23.2077 28.1557 25.1255 28.1557 26.3084 26.9728L26.8974 26.3838C28.0803 25.2009 28.0803 23.2831 26.8974 22.1002L25.4517 20.6545Z" fill="#E67861"/>
<path d="M26.0407 29.3823L25.2375 28.5791L24.4344 29.3823L25.2375 30.1854L26.0407 29.3823Z"/>
<path d="M18.9727 22.3141L18.1696 21.511L17.3664 22.3141L18.1696 23.1173L18.9727 22.3141Z"/>
<path d="M30.0565 25.3667L29.2534 24.5635L28.4502 25.3667L29.2534 26.1698L30.0565 25.3667Z"/>
<path d="M22.9886 18.2985L22.1854 17.4954L21.3822 18.2985L22.1854 19.1017L22.9886 18.2985Z"/>
<path fill-rule="evenodd" clip-rule="evenodd" d="M4.87705 25.4221L9.57044 29.8728C9.88224 30.1685 10.3728 30.1619 10.6767 29.8581C10.9805 29.5542 10.987 29.0637 10.6914 28.7519L6.24073 24.0585L7.06493 23.2769L11.5156 27.9703C12.2348 28.7288 12.219 29.9221 11.4798 30.6613C10.7407 31.4004 9.54734 31.4162 8.78887 30.697L4.09548 26.2464L4.87705 25.4221Z"/>
<path d="M12.8405 29.3903L12.8405 28.2544L11.7046 28.2544L11.7046 29.3903L12.8405 29.3903Z"/>
<path d="M11.7159 28.2657L11.7159 27.1299L10.58 27.1299L10.58 28.2657L11.7159 28.2657Z"/>
<path d="M10.1628 32.0673L10.1628 30.9314L9.02698 30.9314L9.02698 32.0673L10.1628 32.0673Z"/>
<path d="M9.03876 30.943L9.03876 29.8071L7.9029 29.8071L7.9029 30.943L9.03876 30.943Z"/>
<path fill-rule="evenodd" clip-rule="evenodd" d="M13.1909 33.2632L10.7465 30.8188C10.5247 30.597 10.5247 30.2374 10.7465 30.0156C10.9683 29.7938 11.3279 29.7938 11.5497 30.0156L13.9941 32.46C14.2159 32.6818 14.2159 33.0414 13.9941 33.2632C13.7723 33.485 13.4127 33.485 13.1909 33.2632Z" fill="#5C6D7D"/>
<path d="M9.74644 26.2885L10.5638 25.4998L7.4088 22.2304L6.59146 23.0191L9.74644 26.2885Z"/>
<path d="M6.19587 29.6606L6.97693 28.8359L3.67814 25.7117L2.89709 26.5364L6.19587 29.6606Z"/>
<path fill-rule="evenodd" clip-rule="evenodd" d="M5.25714 21.0532C4.60065 21.2581 3.82613 21.7292 3.11619 22.4391C2.40626 23.1491 1.93519 23.9236 1.7303 24.5801C1.5164 25.2654 1.62921 25.6641 1.80435 25.8392C1.97948 26.0144 2.37816 26.1272 3.0635 25.9133C3.71998 25.7084 4.49451 25.2373 5.20444 24.5274C5.91438 23.8174 6.38545 23.0429 6.59034 22.3864C6.80424 21.7011 6.69143 21.3024 6.51629 21.1273C6.34116 20.9521 5.94248 20.8393 5.25714 21.0532ZM4.91873 19.969C5.75468 19.7081 6.69615 19.7008 7.31947 20.3241C7.94278 20.9474 7.93552 21.8889 7.67462 22.7248C7.40471 23.5896 6.82064 24.5175 6.00762 25.3305C5.19459 26.1436 4.2667 26.7276 3.4019 26.9975C2.56596 27.2584 1.62448 27.2657 1.00117 26.6424C0.377862 26.0191 0.385121 25.0776 0.64602 24.2417C0.915926 23.3769 1.5 22.449 2.31302 21.636C3.12605 20.8229 4.05393 20.2389 4.91873 19.969Z"/>
<path fill-rule="evenodd" clip-rule="evenodd" d="M23.8079 5.88552L28.5013 10.3362C28.8132 10.6318 29.3037 10.6253 29.6076 10.3215C29.9114 10.0176 29.9179 9.52704 29.6223 9.21524L25.1716 4.52184L25.9958 3.74026L30.4465 8.43366C31.1657 9.19214 31.1499 10.3855 30.4108 11.1246C29.6716 11.8638 28.4783 11.8796 27.7198 11.1604L23.0264 6.70972L23.8079 5.88552Z"/>
<path d="M31.7714 9.85362L31.7714 8.71777L30.6355 8.71777L30.6355 9.85362L31.7714 9.85362Z" />
<path d="M30.6468 8.72911L30.6468 7.59326L29.5109 7.59326L29.5109 8.72911L30.6468 8.72911Z"/>
<path d="M29.0938 12.5306L29.0938 11.3948L27.958 11.3948L27.958 12.5306L29.0938 12.5306Z"/>
<path d="M27.9697 11.4064L27.9697 10.2705L26.8338 10.2705L26.8338 11.4064L27.9697 11.4064Z"/>
<path fill-rule="evenodd" clip-rule="evenodd" d="M32.7276 14.3324L29.6774 11.2822C29.4556 11.0604 29.4556 10.7008 29.6774 10.479C29.8992 10.2572 30.2588 10.2572 30.4806 10.479L33.5308 13.5292C33.7526 13.751 33.7526 14.1106 33.5308 14.3324C33.309 14.5542 32.9494 14.5542 32.7276 14.3324Z"/>
<path d="M28.6774 6.75188L29.4948 5.96313L26.3398 2.69375L25.5224 3.48249L28.6774 6.75188Z"/>
<path d="M25.1268 10.124L25.9079 9.29932L22.6091 6.1751L21.828 6.99979L25.1268 10.124Z"/>
<path fill-rule="evenodd" clip-rule="evenodd" d="M24.188 1.51661C23.5316 1.7215 22.757 2.19258 22.0471 2.90251C21.3372 3.61244 20.8661 4.38697 20.6612 5.04346C20.4473 5.7288 20.5601 6.12748 20.7352 6.30261C20.9104 6.47774 21.3091 6.59056 21.9944 6.37666C22.6509 6.17177 23.4254 5.70069 24.1354 4.99076C24.8453 4.28083 25.3164 3.5063 25.5213 2.84981C25.7352 2.16447 25.6223 1.76579 25.4472 1.59066C25.2721 1.41552 24.8734 1.30271 24.188 1.51661ZM23.8496 0.432331C24.6856 0.171432 25.6271 0.164174 26.2504 0.787485C26.8737 1.4108 26.8664 2.35228 26.6055 3.18822C26.3356 4.05302 25.7516 4.98091 24.9385 5.79393C24.1255 6.60696 23.1976 7.19103 22.3328 7.46094C21.4969 7.72184 20.5554 7.7291 19.9321 7.10578C19.3088 6.48247 19.316 5.54099 19.5769 4.70505C19.8468 3.84025 20.4309 2.91236 21.2439 2.09933C22.057 1.28631 22.9848 0.702237 23.8496 0.432331Z"/>
</svg>
