<svg width="29" height="33" viewBox="0 0 29 33" xmlns="http://www.w3.org/2000/svg">
<path fill-rule="evenodd" clip-rule="evenodd" d="M10.1663 12.4032C14.2433 12.4032 17.562 15.7219 17.562 19.7989C17.562 23.8759 14.2433 27.1946 10.1663 27.1946C6.08933 27.1946 2.77062 23.8759 2.77062 19.7989C2.77062 15.7219 6.08933 12.4032 10.1663 12.4032ZM10.1663 11.2673C14.8706 11.2673 18.6979 15.0946 18.6979 19.7989C18.6979 24.5032 14.8706 28.3304 10.1663 28.3304C5.46202 28.3304 1.63477 24.5032 1.63477 19.7989C1.63477 15.0946 5.46202 11.2673 10.1663 11.2673Z"/>
<path fill-rule="evenodd" clip-rule="evenodd" d="M8.66192 15.4322C11.0744 15.4322 13.0388 17.3966 13.0388 19.8091C13.0388 22.2215 11.0744 24.1859 8.66192 24.1859C6.24945 24.1859 4.28509 22.2215 4.28509 19.8091C4.28509 17.3966 6.24945 15.4322 8.66192 15.4322ZM8.66192 14.2964C11.7017 14.2964 14.1746 16.7693 14.1746 19.8091C14.1746 22.8489 11.7017 25.3218 8.66192 25.3218C5.62213 25.3218 3.14923 22.8489 3.14923 19.8091C3.14923 16.7693 5.62213 14.2964 8.66192 14.2964Z" fill="#E67861"/>
<path fill-rule="evenodd" clip-rule="evenodd" d="M10.5392 7.85478C10.2856 8.03926 10.2295 8.39446 10.414 8.64812L13.8802 13.4142L15.8825 14.5702C19.7306 16.7919 21.2515 21.198 19.0813 24.9569C16.9112 28.7158 12.3349 29.6016 8.48677 27.3799L6.46711 26.2139C6.19547 26.0571 5.84813 26.1501 5.6913 26.4218C5.53447 26.6934 5.62754 27.0407 5.89918 27.1976L7.91884 28.3636C12.2188 30.8462 17.5309 29.9141 20.065 25.5248C22.5991 21.1356 20.7504 16.0691 16.4504 13.5865L14.657 12.5511L11.3326 7.98005C11.1481 7.72638 10.7929 7.6703 10.5392 7.85478Z"/>
<path fill-rule="evenodd" clip-rule="evenodd" d="M11.559 1.2394C11.5082 1.23852 11.4593 1.25803 11.4231 1.29355L7.94034 4.71058C7.89312 4.75691 7.8735 4.82453 7.88861 4.88894L9.23003 10.6076C9.30166 10.913 9.11218 11.2186 8.80681 11.2902C8.50144 11.3619 8.19582 11.1724 8.12419 10.867L6.78277 5.14834C6.67701 4.69748 6.81429 4.22412 7.14485 3.89979L10.6276 0.482767C10.881 0.234098 11.2237 0.0975421 11.5787 0.103716L19.5005 0.241487C20.0036 0.250237 20.4584 0.543171 20.6744 0.99764L24.2621 8.54677L23.3347 9.68022C26.6146 13.0726 28.4088 16.5589 28.1751 20.6892C27.7884 27.5221 22.723 31.5709 17.0755 32.1828C11.4278 32.7947 5.15461 29.9855 2.24802 23.1511C2.12527 22.8625 2.25974 22.529 2.54838 22.4062C2.83702 22.2835 3.17052 22.4179 3.29328 22.7066C5.99025 29.0481 11.7672 31.6154 16.9531 31.0535C22.1392 30.4917 26.6906 26.8167 27.041 20.625C27.2581 16.7898 25.5532 13.499 22.1708 10.1166L17.0595 5.00527C16.8377 4.78348 16.8377 4.42389 17.0595 4.2021C17.2813 3.98031 17.6409 3.98031 17.8627 4.2021L22.5303 8.86971L22.9273 8.38442L19.6485 1.48519C19.6176 1.42027 19.5527 1.37842 19.4808 1.37717L11.559 1.2394Z"/>
<path fill-rule="evenodd" clip-rule="evenodd" d="M11.8955 5.58438C11.4818 5.43708 11.2645 4.97936 11.4118 4.56573C11.5591 4.15211 12.0168 3.93478 12.4305 4.08208C12.8441 4.22938 13.0614 4.6871 12.9141 5.10072C12.7668 5.51435 12.3091 5.73167 11.8955 5.58438ZM10.3418 4.18468C9.98404 5.18927 10.5098 6.29666 11.5144 6.65441C12.519 7.01216 13.6264 6.48636 13.9842 5.48178C14.3419 4.47719 13.8161 3.36979 12.8115 3.01205C11.8069 2.6543 10.6995 3.18009 10.3418 4.18468Z" fill="#E67861"/>
</svg>
