<svg width="34" height="34" viewBox="0 0 34 34" xmlns="http://www.w3.org/2000/svg">
<path d="M32.8667 0V1.7H17C14.6048 1.69823 12.2432 2.2627 10.1076 3.3473L6.23333 2.18393C4.51393 1.66692 2.70095 2.64166 2.18393 4.36107C2.00033 4.97165 2.00033 5.62275 2.18393 6.23333L3.3473 10.1093C2.26291 12.2443 1.69851 14.6054 1.7 17C1.7 17.17 1.70737 17.336 1.71303 17.5032C1.7073 17.524 1.7029 17.5453 1.7 17.5667V32.8667H0V34H11.3333V32.8667H9.63333V30.4045C14.0526 32.841 19.391 32.9338 23.8924 30.6527L27.7667 31.8161C29.4861 32.3331 31.2991 31.3583 31.8161 29.6389C31.9997 29.0284 31.9997 28.3773 31.8161 27.7667L30.6527 23.8907C31.7371 21.7557 32.3015 19.3946 32.3 17C32.2981 14.8523 31.8457 12.7288 30.9723 10.7667H32.8667V12.4667H34V0H32.8667ZM3.27023 5.9058C2.93292 4.78762 3.56596 3.60768 4.68421 3.27037C5.08236 3.15024 5.50708 3.15024 5.90523 3.27023L8.74197 4.12023C8.65527 4.1769 8.57197 4.23357 8.4881 4.29023L8.40877 4.34407C6.80949 5.42824 5.43108 6.80666 4.3469 8.40593L4.29307 8.48527C4.2364 8.57027 4.17633 8.65527 4.12307 8.73913L3.27023 5.9058ZM8.5 32.8667H2.83333V31.7333H8.5V32.8667ZM2.83333 30.6V22.7704C2.97387 23.1141 3.12651 23.4519 3.2912 23.7836L3.31557 23.8306C3.46665 24.1328 3.62837 24.4305 3.80063 24.7237C3.82047 24.7571 3.8386 24.7905 3.8573 24.824C4.02843 25.1107 4.20885 25.3912 4.39847 25.6655C4.4455 25.7335 4.4948 25.8003 4.54297 25.8683C4.69405 26.0814 4.85145 26.2903 5.015 26.4951C5.07167 26.5642 5.1221 26.6339 5.17763 26.7019C5.36747 26.9331 5.5658 27.1552 5.76867 27.3768C5.85423 27.4697 5.94263 27.5604 6.03103 27.6516C6.18857 27.8137 6.34971 27.9724 6.5144 28.1276C6.6198 28.2274 6.72577 28.326 6.83457 28.4223C7.02348 28.5912 7.21671 28.7549 7.41427 28.9136C7.51287 28.9929 7.61203 29.0711 7.7129 29.1482C7.9543 29.3329 8.1991 29.5131 8.44957 29.6837C8.466 29.695 8.48073 29.7075 8.49717 29.7183L8.5 30.6H2.83333ZM30.7298 28.0942C31.0662 29.2134 30.4316 30.3932 29.3125 30.7296C28.9154 30.849 28.4919 30.8491 28.0948 30.7298L25.258 29.8798C25.3447 29.8231 25.428 29.7664 25.5119 29.7098L25.5912 29.6559C27.1905 28.5718 28.5689 27.1933 29.6531 25.5941L29.7069 25.5147C29.7636 25.4297 29.8237 25.3447 29.8769 25.2609L30.7298 28.0942ZM31.1667 17C31.169 19.3256 30.595 21.6156 29.4961 23.6651C29.3618 23.9173 29.2196 24.1632 29.0711 24.4052C29.0071 24.5095 28.9397 24.6115 28.8734 24.714C28.7776 24.8614 28.6784 25.0059 28.5776 25.1487C28.4378 25.3474 28.2925 25.5423 28.1418 25.7335C28.0608 25.8372 27.9803 25.9409 27.8964 26.0423C27.7774 26.1859 27.6554 26.3268 27.5304 26.465C27.4737 26.5268 27.417 26.5874 27.3604 26.6481C27.1314 26.894 26.894 27.1314 26.6481 27.3604C26.5874 27.417 26.5268 27.4737 26.465 27.5304C26.326 27.655 26.1851 27.7771 26.0423 27.8964C25.9409 27.9803 25.8372 28.0608 25.7335 28.1418C25.5427 28.2929 25.3478 28.4382 25.1487 28.5776C25.0059 28.6784 24.8614 28.7776 24.714 28.8734C24.6115 28.9397 24.5095 29.0071 24.4052 29.0711C24.1632 29.2196 23.9173 29.3618 23.6651 29.4961C19.0945 31.9414 13.5516 31.6869 9.2242 28.8331C9.1035 28.7538 8.98507 28.6716 8.8672 28.5889C8.76747 28.5192 8.66717 28.4501 8.5697 28.3775C8.45183 28.2897 8.33793 28.1985 8.22347 28.1084C8.0478 27.969 7.87575 27.826 7.70723 27.6794C7.6177 27.6012 7.52647 27.5236 7.43863 27.4431C7.33493 27.3479 7.23407 27.2499 7.1332 27.1518C7.0499 27.0708 6.9666 26.9892 6.88557 26.9059C6.78959 26.8084 6.69517 26.7095 6.60223 26.609C6.51497 26.5143 6.43223 26.418 6.34497 26.3211C6.2577 26.2242 6.18233 26.1369 6.10357 26.0423C5.94773 25.8547 5.79587 25.6643 5.65023 25.4688C5.6185 25.4263 5.58903 25.3821 5.55787 25.3396C5.43263 25.1696 5.30967 24.9928 5.1918 24.8155C5.15327 24.7588 5.117 24.6982 5.07847 24.6398C4.96513 24.4664 4.85917 24.2913 4.75603 24.1134C4.72713 24.0641 4.69937 24.0153 4.67103 23.966C4.54977 23.7518 4.43303 23.5354 4.3231 23.3149L4.30667 23.2804C3.42068 21.4931 2.92336 19.5385 2.8475 17.5451C2.84013 17.3632 2.83333 17.1825 2.83333 17C2.831 14.6744 3.40496 12.3844 4.50387 10.3349C4.63817 10.0827 4.7804 9.83677 4.92887 9.5948C4.9929 9.49053 5.06033 9.38853 5.12663 9.28597C5.2224 9.13863 5.32157 8.99413 5.42243 8.85133C5.56219 8.65222 5.70747 8.45729 5.8582 8.26653C5.93923 8.16283 6.0197 8.05913 6.10357 7.9577C6.22257 7.81412 6.34461 7.67323 6.46963 7.53497C6.5263 7.4732 6.58297 7.41257 6.63963 7.35193C6.86857 7.106 7.106 6.86857 7.35193 6.63963C7.41257 6.58297 7.4732 6.5263 7.53497 6.46963C7.67359 6.34497 7.81455 6.22292 7.9577 6.10357C8.05913 6.0197 8.16283 5.93923 8.26653 5.8582C8.45729 5.70711 8.65222 5.56183 8.85133 5.42243C8.99413 5.32157 9.13863 5.2224 9.28597 5.12663C9.38853 5.06033 9.49053 4.9929 9.5948 4.92887C9.83677 4.7804 10.0827 4.63817 10.3349 4.50387C12.3844 3.40496 14.6744 2.831 17 2.83333H28.3333V9.63333H23.2333V9.66847C19.1705 6.21215 13.0751 6.70381 9.61867 10.7667C6.16236 14.8295 6.65401 20.9249 10.7169 24.3813C14.7797 27.8376 20.8751 27.346 24.3315 23.2831C27.4007 19.6754 27.4007 14.3744 24.3315 10.7667H29.7149C30.6737 12.7045 31.1706 14.838 31.1667 17ZM25.5 17C25.5 21.6944 21.6944 25.5 17 25.5C12.3056 25.5 8.5 21.6944 8.5 17C8.5 12.3056 12.3056 8.5 17 8.5C21.6922 8.50531 25.4947 12.3078 25.5 17ZM32.8667 9.63333H29.4667V2.83333H32.8667V9.63333Z"/>
<path d="M24.3337 16.3522C24.3269 16.2723 24.3173 16.193 24.3082 16.1136C24.2918 15.9839 24.2714 15.8547 24.2515 15.726C24.2243 15.5708 24.1915 15.4178 24.1546 15.2665C24.1286 15.1582 24.1036 15.05 24.0725 14.9423L24.0668 14.9253C24.0067 14.7213 23.9359 14.5219 23.8588 14.3252C23.8481 14.298 23.8396 14.2686 23.8282 14.2419C23.7449 14.0368 23.6514 13.8373 23.5506 13.6413C23.5426 13.6254 23.5358 13.6084 23.5273 13.5925C23.4208 13.3897 23.3052 13.1959 23.1811 13.0021C23.1749 12.993 23.1698 12.9834 23.1635 12.9737C23.0406 12.7867 22.9091 12.6065 22.7703 12.4314C22.7561 12.4161 22.7465 12.4008 22.7351 12.3872C22.6071 12.2286 22.4711 12.0773 22.3311 11.9299C22.3033 11.901 22.2784 11.8699 22.2501 11.8415C22.1311 11.7203 22.0047 11.6069 21.8772 11.4942C21.8205 11.4449 21.7695 11.3922 21.7123 11.344C21.6126 11.2607 21.5066 11.1859 21.4029 11.1077C21.3122 11.0397 21.225 10.9683 21.1315 10.9048C21.0493 10.8482 20.9615 10.8006 20.8782 10.7484C20.7648 10.6787 20.6583 10.6051 20.5433 10.5422C20.5348 10.5371 20.5257 10.5337 20.5172 10.5291C20.4719 10.5042 20.4231 10.4844 20.3772 10.4606C20.2152 10.3767 20.052 10.2945 19.8842 10.2231C19.8134 10.1925 19.7386 10.1665 19.6661 10.1404C19.5187 10.0837 19.3725 10.0271 19.2218 9.97776C19.1362 9.95056 19.0478 9.93072 18.9606 9.90692C18.8195 9.86782 18.6772 9.82759 18.5344 9.79699C18.437 9.77602 18.3372 9.76299 18.2386 9.74599C18.1026 9.72332 17.9672 9.69896 17.8301 9.68366C17.7167 9.67062 17.5994 9.66609 17.4838 9.65816C17.3682 9.65022 17.2419 9.64172 17.1195 9.64002C17.0798 9.64002 17.0407 9.63379 17.0005 9.63379C16.8928 9.63379 16.7874 9.64512 16.6809 9.65022C16.5959 9.65419 16.5109 9.65589 16.4253 9.66269C16.2372 9.67742 16.0524 9.70122 15.8688 9.73012C15.8275 9.73636 15.7861 9.74146 15.7442 9.74882C15.5303 9.78658 15.32 9.83304 15.1129 9.88822C15.0993 9.89162 15.0857 9.89332 15.0727 9.89672L15.0528 9.90296C14.8315 9.96416 14.6146 10.0352 14.4023 10.116L14.3456 10.1353C14.1334 10.218 13.9255 10.31 13.7223 10.4113C13.7047 10.4203 13.6872 10.4277 13.6702 10.4368C13.4713 10.5376 13.2786 10.6481 13.091 10.766C13.0695 10.7796 13.048 10.7915 13.027 10.8051C12.8502 10.9184 12.6796 11.0408 12.5136 11.1689C12.483 11.1927 12.4507 11.2142 12.4207 11.2386C12.2722 11.3565 12.1305 11.4823 11.9923 11.6109C11.9481 11.6517 11.9027 11.6897 11.8602 11.731C11.7435 11.8444 11.6336 11.9656 11.5242 12.0869C11.4675 12.1504 11.4109 12.2104 11.3542 12.275C11.2669 12.3793 11.1842 12.4898 11.1054 12.5986C11.0397 12.6859 10.9706 12.7686 10.9088 12.8615C10.8402 12.9613 10.7807 13.0672 10.7173 13.1709C10.6538 13.2746 10.5949 13.3579 10.541 13.4543C10.5371 13.4616 10.5342 13.4696 10.5303 13.4764C10.3988 13.7198 10.2811 13.9705 10.1778 14.2272C10.1489 14.298 10.1257 14.3694 10.099 14.4408C10.0259 14.6386 9.96021 14.8375 9.90354 15.0449C9.88144 15.1259 9.86047 15.2064 9.84064 15.288C9.79191 15.4943 9.75281 15.7034 9.72107 15.9153C9.70974 15.9907 9.69557 16.0649 9.68707 16.142C9.65244 16.4266 9.63451 16.7131 9.63324 16.9999C9.63324 17.2158 9.64627 17.4317 9.66611 17.6476C9.67291 17.7275 9.68254 17.8068 9.69161 17.8862C9.70804 18.0159 9.72844 18.1451 9.74827 18.2738C9.77547 18.429 9.80834 18.582 9.84517 18.7333C9.87124 18.8416 9.89617 18.9498 9.92734 19.0575L9.93301 19.0745C9.99364 19.279 10.0645 19.4791 10.1415 19.6757C10.1517 19.7029 10.1602 19.7324 10.171 19.7573C10.2549 19.9636 10.3489 20.1647 10.4504 20.3614C10.4583 20.3761 10.4645 20.3914 10.4719 20.4061C10.5796 20.6109 10.6961 20.8094 10.8215 21.0017C10.8266 21.0096 10.8306 21.0176 10.8357 21.0249C10.9598 21.2142 11.093 21.3967 11.2324 21.574C11.242 21.5859 11.2505 21.5984 11.2601 21.6103C11.3893 21.7712 11.5276 21.9248 11.6704 22.0744C11.6953 22.101 11.7186 22.1311 11.7446 22.156C11.8659 22.2801 11.9951 22.3957 12.1254 22.5107C12.1781 22.5578 12.228 22.6082 12.2824 22.6535C12.385 22.7397 12.4949 22.8173 12.6026 22.8978C12.6893 22.9629 12.7726 23.0321 12.8632 23.0933C12.9539 23.1545 13.0383 23.2009 13.1256 23.2553C13.2344 23.3228 13.3404 23.3947 13.4526 23.4565C13.4599 23.4605 13.4679 23.4633 13.4747 23.4673C13.7181 23.5987 13.9688 23.7164 14.2255 23.8197C14.2963 23.8486 14.3677 23.8719 14.4391 23.8985C14.6369 23.9716 14.8358 24.0373 15.0432 24.094C15.1242 24.1161 15.2047 24.1371 15.2863 24.1569C15.4926 24.2056 15.7017 24.2447 15.9136 24.2765C15.989 24.2878 16.0632 24.302 16.1403 24.3105C16.4254 24.3459 16.7125 24.3646 16.9999 24.3666C17.2158 24.3666 17.4317 24.3535 17.6476 24.3337C17.7275 24.3269 17.8068 24.3173 17.8862 24.3082C18.0159 24.2918 18.1451 24.2714 18.2738 24.2515C18.429 24.2243 18.582 24.1915 18.7333 24.1546C18.841 24.1286 18.9492 24.1042 19.0563 24.073L19.0733 24.0674C19.2773 24.0073 19.4768 23.9365 19.6734 23.8594C19.7006 23.8486 19.7301 23.8401 19.7567 23.8288C19.9613 23.7461 20.1608 23.6526 20.3557 23.5523L20.4061 23.5279C20.6079 23.4217 20.8036 23.3069 20.9932 23.1834C21.004 23.1766 21.0147 23.1709 21.0255 23.1635C21.2108 23.0423 21.3887 22.9119 21.5621 22.7748C21.578 22.7618 21.5956 22.7504 21.6114 22.7374C21.7673 22.6122 21.9152 22.4784 22.0597 22.3407C22.092 22.3107 22.126 22.2841 22.1577 22.2518C22.275 22.1384 22.3844 22.0132 22.4943 21.8902C22.5476 21.8336 22.6037 21.7769 22.6547 21.714C22.7334 21.6194 22.8048 21.5185 22.8813 21.4199C22.9578 21.3213 23.0287 21.2318 23.0961 21.1326C23.1454 21.0601 23.1879 20.983 23.2349 20.9059C23.3103 20.7858 23.3902 20.6679 23.4616 20.5427C23.4656 20.5353 23.4684 20.5274 23.4724 20.52C23.6038 20.277 23.7213 20.0267 23.8243 19.7703C23.8532 19.6995 23.8764 19.6275 23.903 19.5561C23.9786 19.3586 24.0438 19.1572 24.0985 18.9521C24.1206 18.871 24.1416 18.7911 24.1614 18.7095C24.2102 18.5033 24.2493 18.2936 24.281 18.0811C24.2923 18.0063 24.3065 17.9326 24.315 17.8573C24.3489 17.5727 24.3661 17.2864 24.3666 16.9999C24.3666 16.784 24.3535 16.5681 24.3337 16.3522ZM20.4231 14.3507C20.4486 14.3184 20.4696 14.2833 20.4934 14.2499C20.5331 14.1932 20.5744 14.1411 20.6067 14.0833C20.6311 14.0442 20.6509 14.0022 20.673 13.9614C20.7031 13.9048 20.7348 13.8543 20.7609 13.7982C20.7813 13.7546 20.7971 13.7093 20.8147 13.6651C20.8379 13.6084 20.8623 13.5546 20.8816 13.4951C20.8969 13.4503 20.9071 13.4033 20.9201 13.3574C20.9365 13.3007 20.9547 13.244 20.9677 13.1828C20.9779 13.1358 20.983 13.0882 20.9904 13.0412C21.0006 12.9817 21.0119 12.9227 21.0176 12.8627C21.0221 12.8139 21.0221 12.7658 21.0244 12.717C21.0272 12.657 21.0317 12.5975 21.0306 12.5368C21.0306 12.4881 21.0238 12.4388 21.0204 12.3895C21.017 12.3402 21.0164 12.2864 21.0096 12.2348C21.0266 12.249 21.0419 12.2648 21.0584 12.2796C21.2354 12.4326 21.4035 12.5955 21.5621 12.7675C21.5944 12.802 21.6256 12.8366 21.6568 12.8717C22.0098 13.2696 22.311 13.7106 22.5532 14.1841C22.5657 14.2091 22.577 14.2346 22.5895 14.2595C22.6998 14.483 22.7963 14.7132 22.8785 14.9486C22.8847 14.9639 22.8932 14.9786 22.8961 14.9945L22.8949 15.0018L22.3266 15.7532C22.0046 16.1803 21.5014 16.4319 20.9666 16.4332H18.6036C18.5939 16.406 18.5815 16.3805 18.5707 16.3539L18.5594 16.3267C18.5509 16.3069 18.5441 16.2865 18.5344 16.2666L20.2055 14.5955C20.2827 14.5182 20.3554 14.4364 20.4231 14.3507ZM16.873 10.7728C17.035 10.7694 17.1965 10.7728 17.3575 10.7847C17.4385 10.7892 17.5207 10.7892 17.6011 10.7972C17.8279 10.8183 18.0532 10.8524 18.276 10.8992C18.3361 10.9116 18.3939 10.9303 18.4534 10.9445C18.6234 10.9859 18.7934 11.0312 18.9589 11.0867C19.0354 11.1122 19.1096 11.1434 19.1855 11.1695C19.3325 11.2246 19.4774 11.2853 19.6202 11.3514C19.6644 11.3718 19.708 11.3933 19.7522 11.4148L19.8859 12.3521C19.9605 12.8816 19.7827 13.4154 19.4054 13.7943L17.7343 15.4654C17.7145 15.4557 17.6941 15.4489 17.6742 15.4404L17.647 15.4291C17.6204 15.4183 17.5949 15.4059 17.5677 15.3962V12.7329C17.5662 12.5676 17.5503 12.4029 17.5201 12.2405C17.5122 12.1951 17.502 12.1504 17.4918 12.1056C17.4641 11.9823 17.4281 11.8609 17.3841 11.7424C17.3705 11.7055 17.3597 11.6687 17.345 11.633C17.2837 11.4868 17.2104 11.346 17.1257 11.212C17.1076 11.1842 17.086 11.1587 17.069 11.1309C16.996 11.0248 16.9158 10.9239 16.8288 10.8289C16.814 10.8125 16.8027 10.7926 16.7874 10.7762C16.814 10.7762 16.8435 10.7734 16.873 10.7728ZM12.2767 12.9437V12.9448C12.4423 12.7536 12.6192 12.5725 12.8066 12.4025C12.836 12.3759 12.8632 12.3459 12.8944 12.3226C13.3242 11.946 13.8033 11.6297 14.3184 11.3825L14.3451 11.3701C14.6104 11.244 14.8844 11.1372 15.165 11.0505L15.4937 11.2148C16.0709 11.5007 16.4352 12.0899 16.4332 12.734V15.3974C16.406 15.407 16.3805 15.4195 16.3539 15.4302L16.3267 15.4416C16.3069 15.4501 16.2865 15.4569 16.2666 15.4665L14.5955 13.7954C14.4734 13.676 14.3406 13.5679 14.1989 13.4724C14.1768 13.4571 14.1552 13.4412 14.1326 13.4265C13.996 13.3387 13.8521 13.2629 13.7025 13.1998C13.677 13.1891 13.6515 13.1794 13.6254 13.1692C13.4703 13.107 13.3101 13.0585 13.1466 13.0242L13.1199 13.0202C12.9575 12.9899 12.7928 12.9738 12.6275 12.972C12.6139 12.972 12.6003 12.9675 12.5861 12.9675C12.572 12.9675 12.5674 12.9675 12.5584 12.9675C12.4853 12.9675 12.4122 12.9743 12.3391 12.9811C12.3045 12.9811 12.2699 12.9811 12.2354 12.9879C12.2501 12.972 12.2637 12.9584 12.2767 12.9437ZM10.8929 17.4175V17.4215C10.8601 17.4595 10.8244 17.4957 10.7938 17.5348C10.7785 17.3558 10.7666 17.1795 10.7666 16.9999C10.7672 16.7727 10.7802 16.5457 10.8057 16.3199C10.8119 16.2632 10.8238 16.2066 10.8312 16.1533C10.855 15.9833 10.8816 15.8133 10.919 15.6495C10.9337 15.5815 10.9536 15.5158 10.9706 15.4484C11.0091 15.2993 11.0516 15.1514 11.1009 15.0052C11.1264 14.9293 11.1547 14.8545 11.1836 14.7786C11.2335 14.6477 11.2885 14.5185 11.3474 14.391C11.3689 14.3439 11.3922 14.2969 11.4148 14.2504L12.3521 14.1167C12.8816 14.0416 13.4157 14.2195 13.7943 14.5972L15.4654 16.2683C15.4563 16.2876 15.4495 16.308 15.441 16.325L15.4285 16.3545C15.4178 16.3805 15.4053 16.406 15.3962 16.4327H13.0332C12.9238 16.4328 12.8144 16.4392 12.7057 16.4519C12.6677 16.4565 12.6309 16.4661 12.5924 16.4718C12.5227 16.4831 12.4524 16.4927 12.3838 16.5092C12.3413 16.5194 12.3 16.5341 12.2575 16.5466C12.1957 16.5641 12.1334 16.58 12.0733 16.6032C12.0297 16.6191 11.9877 16.6395 11.9452 16.6599C11.8886 16.6837 11.8319 16.7052 11.7752 16.733C11.7316 16.7545 11.6908 16.7806 11.6483 16.8044C11.5967 16.8333 11.544 16.8611 11.4942 16.8928C11.4443 16.9245 11.4131 16.9495 11.3723 16.9806C11.3315 17.0118 11.2771 17.0469 11.2318 17.0843C11.1865 17.1217 11.1576 17.1518 11.1185 17.1858C11.0794 17.2198 11.0312 17.2634 10.991 17.3053C10.9507 17.3473 10.9264 17.379 10.8929 17.4175ZM13.5761 19.6496V19.6536C13.5551 19.6802 13.5381 19.7103 13.5194 19.7363C13.4752 19.797 13.4299 19.857 13.3908 19.9211C13.3698 19.9545 13.3534 19.9908 13.3341 20.0253C13.3007 20.082 13.2656 20.1443 13.2367 20.2061C13.218 20.2458 13.2044 20.2866 13.1879 20.3268C13.163 20.3863 13.1369 20.4458 13.116 20.507C13.1018 20.5495 13.0922 20.5931 13.0803 20.6362C13.0627 20.6968 13.0434 20.7569 13.0304 20.8192C13.0208 20.8646 13.0157 20.9105 13.0083 20.9564C12.9981 21.017 12.9868 21.0776 12.9805 21.1394C12.976 21.187 12.976 21.2352 12.9737 21.2833C12.9737 21.344 12.9664 21.404 12.9675 21.4641C12.9675 21.514 12.9743 21.5633 12.9777 21.6131C12.9811 21.663 12.9817 21.7157 12.9885 21.7667C12.9732 21.7537 12.959 21.7395 12.9443 21.7265C12.7651 21.5711 12.5948 21.4058 12.4343 21.2312C12.4037 21.1983 12.3731 21.1649 12.343 21.1315C11.9906 20.7332 11.6897 20.292 11.4477 19.8185C11.4352 19.7947 11.4239 19.7698 11.412 19.7454C11.3017 19.5213 11.205 19.2909 11.1224 19.0552C11.1168 19.0399 11.1105 19.0252 11.1054 19.0093L11.6732 18.2466C11.9953 17.8196 12.4985 17.568 13.0332 17.5666H15.3962C15.4053 17.5932 15.4178 17.6187 15.4285 17.6448L15.441 17.6742C15.4495 17.6935 15.4563 17.7139 15.4654 17.7309L13.7943 19.402C13.7169 19.4803 13.644 19.563 13.5761 19.6496ZM17.4306 23.2111L17.4294 23.2151C17.2207 23.2301 17.0113 23.2341 16.8021 23.227C16.7228 23.227 16.6429 23.2208 16.5641 23.2151C16.3613 23.2011 16.1595 23.1771 15.9589 23.1431C15.9091 23.1346 15.8581 23.1301 15.8088 23.1205C15.5595 23.0717 15.3135 23.0078 15.0721 22.9289C15.0217 22.9125 14.9735 22.8921 14.9236 22.8723C14.7347 22.805 14.5485 22.7285 14.3649 22.6428C14.3252 22.6246 14.2867 22.6059 14.2476 22.5861L14.115 21.6466C14.0404 21.1171 14.2183 20.5833 14.5955 20.2044L16.2666 18.5333C16.2865 18.5429 16.3069 18.5497 16.3273 18.5588L16.3539 18.5696C16.38 18.5803 16.406 18.5928 16.4332 18.6024V20.9666C16.4334 21.076 16.4398 21.1854 16.4525 21.2941C16.457 21.3326 16.4667 21.3695 16.4723 21.4074C16.4837 21.4771 16.4933 21.5468 16.5097 21.6154C16.5199 21.659 16.5352 21.701 16.5477 21.744C16.5653 21.8052 16.5811 21.8664 16.6044 21.9265C16.6202 21.9701 16.6412 22.0121 16.661 22.0557C16.6848 22.1124 16.7069 22.169 16.7341 22.2257C16.7557 22.2693 16.7817 22.3101 16.8055 22.3526C16.8344 22.4042 16.8622 22.4575 16.8939 22.5073C16.9257 22.5572 16.9506 22.5889 16.9823 22.6297C17.0141 22.6705 17.0486 22.7244 17.0849 22.7691C17.1212 22.8139 17.1535 22.8445 17.188 22.8825C17.2226 22.9204 17.2645 22.9692 17.3065 23.0094C17.3484 23.0496 17.383 23.0763 17.4198 23.1097C17.4566 23.1431 17.494 23.1777 17.5331 23.2083C17.4986 23.2089 17.464 23.2089 17.4306 23.2111ZM17.5224 17.2203C17.5028 17.2569 17.4797 17.2915 17.4532 17.3235C17.417 17.3739 17.3728 17.4181 17.3223 17.4544C17.2904 17.4808 17.2558 17.5039 17.2192 17.5235C17.079 17.5824 16.9209 17.5824 16.7806 17.5235C16.744 17.5039 16.7094 17.4808 16.6775 17.4544C16.6309 17.4214 16.5899 17.3815 16.5556 17.3359C16.5251 17.3014 16.4989 17.2634 16.4774 17.2226C16.4186 17.0823 16.4186 16.9242 16.4774 16.784C16.4985 16.7413 16.5248 16.7013 16.5556 16.665V16.6661C16.5899 16.6206 16.6309 16.5806 16.6775 16.5477C16.7094 16.5213 16.744 16.4981 16.7806 16.4786C16.9209 16.4197 17.079 16.4197 17.2192 16.4786C17.2558 16.4981 17.2904 16.5213 17.3223 16.5477C17.3728 16.584 17.417 16.6282 17.4532 16.6786C17.4797 16.7105 17.5028 16.7451 17.5224 16.7817C17.5812 16.922 17.5812 17.0801 17.5224 17.2203ZM21.718 21.0612L21.7168 21.0652C21.5638 21.2422 21.4009 21.4103 21.2289 21.5689C21.1944 21.6012 21.1598 21.6324 21.1247 21.6636C20.7274 22.014 20.2876 22.3129 19.8157 22.5532L19.7403 22.5895C19.5167 22.6998 19.2866 22.7963 19.0512 22.8785C19.0359 22.8842 19.0212 22.8904 19.0053 22.8955L18.2466 22.3266C17.8195 22.0046 17.5679 21.5013 17.5666 20.9666V18.6036C17.5938 18.5939 17.6193 18.5815 17.6459 18.5707L17.6731 18.5594C17.6929 18.5509 17.7133 18.5441 17.7332 18.5344L19.4043 20.2055C19.5265 20.3253 19.6592 20.4337 19.8009 20.5297L19.8633 20.5733C19.9998 20.6611 20.1437 20.7369 20.2934 20.8C20.3194 20.8113 20.3449 20.8215 20.371 20.8317C20.5241 20.8927 20.6822 20.9406 20.8436 20.9745C20.86 20.9779 20.877 20.9796 20.8935 20.9824C21.0572 21.0136 21.2233 21.0301 21.3899 21.0317C21.3978 21.0317 21.4052 21.0317 21.4125 21.0317H21.4227C21.5364 21.0316 21.65 21.0244 21.7627 21.0102C21.7486 21.0295 21.7327 21.0448 21.718 21.0612ZM23.193 17.6867C23.1868 17.7434 23.1749 17.8 23.1669 17.8567C23.1437 18.0267 23.1171 18.1916 23.0802 18.3565C23.0649 18.4256 23.0451 18.4931 23.0275 18.5611C22.989 18.709 22.9476 18.8557 22.8983 19.0002C22.8723 19.0773 22.8417 19.1532 22.8145 19.2269C22.7646 19.3572 22.7102 19.4853 22.6518 19.6122C22.6297 19.6598 22.6065 19.7063 22.5838 19.7533L21.6466 19.8871C21.1172 19.9612 20.5835 19.7834 20.2044 19.4065L18.5333 17.7354C18.5429 17.7156 18.5497 17.6952 18.5582 17.6754L18.5696 17.6482C18.5803 17.6215 18.5928 17.596 18.6024 17.5688H20.9666C21.076 17.5687 21.1854 17.5622 21.2941 17.5496C21.3326 17.545 21.3695 17.5354 21.4074 17.5297C21.4771 17.5184 21.5468 17.5088 21.6154 17.4923C21.659 17.4821 21.701 17.4668 21.744 17.4544C21.8052 17.4368 21.8664 17.4209 21.9265 17.3977C21.9701 17.3818 22.0121 17.3609 22.0557 17.341C22.1124 17.3172 22.169 17.2951 22.2257 17.2679C22.2693 17.2464 22.3101 17.2203 22.3526 17.1965C22.4042 17.1676 22.4575 17.1399 22.5073 17.1081C22.5572 17.0764 22.5889 17.0515 22.6297 17.0197C22.6705 16.988 22.7244 16.9534 22.7691 16.9172C22.8139 16.8809 22.8445 16.8486 22.8825 16.814C22.9204 16.7795 22.9692 16.7375 23.0094 16.6956C23.0496 16.6537 23.074 16.6208 23.1074 16.5823L23.1063 16.5885C23.1392 16.55 23.1743 16.5143 23.2049 16.4752C23.2202 16.6508 23.2321 16.8271 23.2321 17.0067C23.2315 17.2339 23.2184 17.4609 23.193 17.6867Z" fill="#E67861"/>
<path d="M5.6666 4.53345H4.53326V5.66678H5.6666V4.53345Z"/>
<path d="M29.4666 28.3333H28.3333V29.4666H29.4666V28.3333Z"/>
<path d="M3.96674 16.9999H5.10007C5.10722 10.4307 10.4308 5.10704 17.0001 5.09989V3.96655C9.80532 3.9747 3.97488 9.80513 3.96674 16.9999Z"/>
<path d="M19.2666 3.96655H18.1333V5.09989H19.2666V3.96655Z"/>
</svg>
