<svg width="20" height="20" viewBox="0 0 20 20" xmlns="http://www.w3.org/2000/svg">
<path d="M10.0729 11.9805L18.2745 2.97832L19.3572 3.96481L10.148 14.0729L5.12764 9.30038L6.13701 8.23872L10.0729 11.9805ZM18.7885 6.74023L17.6462 7.99793C17.812 8.63468 17.9004 9.30233 17.9004 9.99023C17.9004 14.3518 14.3518 17.9004 9.99023 17.9004C5.62866 17.9004 2.08008 14.3518 2.08008 9.99023C2.08008 5.62866 5.62866 2.08008 9.99023 2.08008C12.0108 2.08008 13.8565 2.84203 15.2562 4.09309L16.2437 3.00579C14.5222 1.46072 12.3213 0.615234 9.99023 0.615234C7.48615 0.615234 5.13176 1.59039 3.36113 3.36113C1.59039 5.13176 0.615234 7.48615 0.615234 9.99023C0.615234 12.4943 1.59039 14.8487 3.36113 16.6193C5.13176 18.3901 7.48615 19.3652 9.99023 19.3652C12.4943 19.3652 14.8487 18.3901 16.6193 16.6193C18.3901 14.8487 19.3652 12.4943 19.3652 9.99023C19.3652 8.86322 19.1671 7.76688 18.7885 6.74023Z"/>
</svg>
