<svg width="20" height="20" viewBox="0 0 20 20" xmlns="http://www.w3.org/2000/svg">
<path d="M16.6667 11.011V4.58332C16.6667 4.50465 16.6391 4.43527 16.6012 4.3725L16.6073 4.36891L14.1073 0.202227C14.032 0.0769141 13.8965 0 13.75 0H2.91668C2.7702 0 2.63469 0.0769141 2.55941 0.202227L0.0594141 4.36891L0.0654688 4.3725C0.0276172 4.43527 0 4.50465 0 4.58332V16.25C0 16.4803 0.186367 16.6667 0.41668 16.6667H11.011C11.557 18.5875 13.3232 20 15.4167 20C17.9439 20 20 17.9439 20 15.4167C20 13.3232 18.5875 11.557 16.6667 11.011ZM13.514 0.83332L15.5141 4.16664H10.7582L10.0916 0.83332H13.514ZM7.42488 0.83332H9.24246L9.91582 4.16664H6.7582L7.42488 0.83332ZM10 5V6.66668H6.66543L6.65969 5H10ZM3.15266 0.83332H6.57605L5.91586 4.16664H1.15262L3.15266 0.83332ZM10.8545 15.8333H0.83332V5H5.83332V7.08332C5.83332 7.31363 6.01969 7.5 6.25 7.5H10.4167C10.647 7.5 10.8334 7.31363 10.8334 7.08332L10.8268 5H15.8333V10.8545C15.6959 10.842 15.5573 10.8334 15.4166 10.8334C12.8894 10.8334 10.8333 12.8894 10.8333 15.4167C10.8333 15.5573 10.842 15.6959 10.8545 15.8333ZM15.4167 19.1667C13.3488 19.1667 11.6667 17.4845 11.6667 15.4167C11.6667 13.3488 13.3488 11.6667 15.4167 11.6667C17.4845 11.6667 19.1667 13.3488 19.1667 15.4167C19.1667 17.4845 17.4845 19.1667 15.4167 19.1667Z"/>
<path d="M17.2054 13.8721L14.5834 16.4942L13.628 15.5388C13.4652 15.376 13.2015 15.376 13.0388 15.5388C12.876 15.7015 12.876 15.9652 13.0388 16.1279L14.2888 17.3779C14.3702 17.4593 14.4768 17.5 14.5834 17.5C14.69 17.5 14.7966 17.4593 14.878 17.3779L17.7947 14.4613C17.9575 14.2985 17.9575 14.0348 17.7947 13.8721C17.6319 13.7093 17.3682 13.7093 17.2054 13.8721Z"/>
</svg>
