<svg width="18" height="20" viewBox="0 0 18 20" xmlns="http://www.w3.org/2000/svg">
<path d="M17.4957 5.42651L17.4951 5.41094C17.4864 5.21883 17.4806 5.01559 17.4771 4.78945C17.4607 3.6867 16.5841 2.77454 15.4812 2.71289C13.1817 2.58456 11.4029 1.83475 9.88293 0.353278L9.86996 0.340919C9.3742 -0.11364 8.62637 -0.11364 8.13046 0.340919L8.11749 0.353278C6.59757 1.83475 4.8187 2.58456 2.51921 2.71304C1.41646 2.77454 0.539692 3.6867 0.523365 4.78961C0.520008 5.01421 0.514058 5.21746 0.50536 5.41094L0.504445 5.44711C0.459736 7.79192 0.404195 10.7102 1.38045 13.3589C1.91725 14.8155 2.73024 16.0817 3.79667 17.1225C5.01127 18.3078 6.60214 19.2488 8.52505 19.9193C8.58761 19.9411 8.65261 19.9588 8.71884 19.9721C8.81222 19.9907 8.90621 20 9.00021 20C9.0942 20 9.18835 19.9907 9.28158 19.9721C9.3478 19.9588 9.41326 19.9409 9.47613 19.919C11.3967 19.2473 12.9859 18.3058 14.1995 17.1207C15.2654 16.0796 16.0784 14.8131 16.6157 13.3562C17.5956 10.6995 17.5402 7.77574 17.4957 5.42651ZM15.5146 12.9501C14.485 15.7419 12.3831 17.6591 9.08886 18.8112C9.07711 18.8151 9.0646 18.8187 9.05163 18.8212C9.0176 18.828 8.98297 18.828 8.94848 18.8211C8.93566 18.8185 8.92315 18.8151 8.91156 18.8112C5.61384 17.6613 3.51057 15.7451 2.48167 12.9532C1.58186 10.5116 1.63283 7.83281 1.67784 5.46954L1.67815 5.45641C1.6873 5.25332 1.69341 5.04061 1.69676 4.80685C1.70409 4.3172 2.0941 3.91208 2.58467 3.88476C3.88594 3.81213 5.02912 3.56067 6.07953 3.11603C7.12857 2.672 8.06027 2.04608 8.92758 1.20258C8.97167 1.16535 9.0289 1.1652 9.07284 1.20258C9.9403 2.04608 10.872 2.672 11.9209 3.11603C12.9713 3.56067 14.1145 3.81213 15.4159 3.88476C15.9065 3.91208 16.2965 4.3172 16.3037 4.807C16.3072 5.04199 16.3133 5.25469 16.3224 5.45641C16.3673 7.82243 16.417 10.5034 15.5146 12.9501Z"/>
<path d="M9 5.01611C6.25159 5.01611 4.01572 7.25214 4.01572 10.0004C4.01572 12.7488 6.25159 14.9848 9 14.9848C11.7483 14.9848 13.9843 12.7488 13.9843 10.0004C13.9843 7.25214 11.7483 5.01611 9 5.01611ZM9 13.8111C6.89872 13.8111 5.18927 12.1017 5.18927 10.0004C5.18927 7.89911 6.89872 6.18967 9 6.18967C11.1011 6.18967 12.8106 7.89911 12.8106 10.0004C12.8106 12.1017 11.1011 13.8111 9 13.8111Z"/>
<path d="M10.4325 8.45289L8.11741 10.768L7.48905 10.1396C7.25986 9.91041 6.88831 9.91041 6.65913 10.1396C6.43009 10.3688 6.43009 10.7403 6.65913 10.9694L7.70252 12.0128C7.81712 12.1274 7.96726 12.1846 8.11741 12.1846C8.26756 12.1846 8.4177 12.1274 8.5323 12.0128L11.2624 9.28266C11.4914 9.05347 11.4914 8.68192 11.2624 8.45289C11.0332 8.22355 10.6617 8.22355 10.4325 8.45289Z"/>
</svg>
