<svg width="20" height="18" viewBox="0 0 20 18" xmlns="http://www.w3.org/2000/svg">
<path d="M19.9896 9.80711C19.937 7.06607 18.7946 4.52533 16.7735 2.65389C12.9678 -0.884661 7.0059 -0.884661 3.20005 2.65408C1.18716 4.52787 0.0513018 7.06903 0.00239565 9.80989C-0.0467449 12.5509 0.994464 15.1287 2.93399 17.0682C3.01501 17.1494 3.1254 17.1951 3.24044 17.1928C3.35528 17.1911 3.46458 17.1435 3.54348 17.0599C3.66067 16.9363 3.80504 16.7875 3.86204 16.7328C3.8818 16.7188 3.90051 16.703 3.91817 16.6854L4.85707 15.7467H7.91328C8.26715 15.7467 8.57914 15.5334 8.70824 15.2033C8.835 14.8796 8.75289 14.5194 8.51175 14.2973C7.68703 13.4724 7.23277 12.3784 7.23277 11.2166V7.5588C7.23277 7.18704 7.37355 6.84997 7.6398 6.58353C7.89863 6.32493 8.25398 6.1765 8.61507 6.1765H11.3585C11.7302 6.1765 12.0675 6.31728 12.3337 6.58376C12.5926 6.84216 12.7408 7.19774 12.7408 7.55884V11.2167C12.7408 12.3787 12.2867 13.4729 11.4492 14.3108C11.223 14.5573 11.1668 14.9209 11.3059 15.2371C11.4439 15.5515 11.7412 15.7467 12.0815 15.7467H15.314C15.5488 15.7467 15.7394 15.5561 15.7394 15.3214C15.7394 15.0866 15.5489 14.896 15.314 14.896L12.0881 14.9009C12.0847 14.8971 12.0815 14.8877 12.0811 14.8809C13.0553 13.8977 13.5914 12.5973 13.5914 11.2166V7.5588C13.5914 6.97376 13.3522 6.39892 12.9351 5.98208C12.5121 5.55888 11.9522 5.3258 11.3584 5.3258H8.61504C8.03 5.3258 7.45515 5.56505 7.03812 5.98208C6.61512 6.40529 6.38203 6.96525 6.38203 7.5588V11.2166C6.38203 12.6055 6.92477 13.9132 7.91324 14.896H4.68071C4.56801 14.896 4.45973 14.9409 4.38 15.0206L3.32286 16.0777C3.29606 16.1001 3.26778 16.1258 3.23735 16.1547C1.65446 14.42 0.810636 12.1891 0.852941 9.82516C0.897824 7.31739 1.93731 4.99169 3.77965 3.27697C7.26035 0.0404149 12.7133 0.0404151 16.1951 3.2774C18.0455 4.99084 19.0912 7.31552 19.1395 9.82325C19.1875 12.3312 18.2361 14.6903 16.4597 16.4667C16.2936 16.6328 16.2936 16.902 16.4597 17.0681C16.5428 17.1513 16.6515 17.1927 16.7604 17.1927C16.8692 17.1927 16.9779 17.1512 17.0609 17.0683C19.0022 15.1271 20.0423 12.5484 19.9896 9.80711Z"/>
</svg>
