<svg width="30" height="24" viewBox="0 0 30 24" xmlns="http://www.w3.org/2000/svg">
<path d="M29.5357 4.82626C28.5451 2.14006 26.1738 0.38253 23.3479 0.238682C23.3367 0.238389 23.3262 0.238037 23.3154 0.238037H22.9006C19.333 0.238037 16.2684 2.43485 14.9888 5.54661C13.7091 2.43485 10.6446 0.238037 7.07692 0.238037H6.66219C6.65135 0.238037 6.64051 0.23833 6.62967 0.238682C3.81012 0.382237 1.44613 2.14106 0.460988 4.82913C-0.55609 7.60433 0.137196 10.5707 2.26797 12.5697L13.4773 23.1719C13.9147 23.5656 14.4679 23.7621 15.0169 23.7621C15.5714 23.7621 16.1213 23.5618 16.5431 23.162L18.2473 21.5538C18.6751 21.126 18.9173 20.562 18.9288 19.9663C18.9403 19.3573 18.7099 18.7846 18.2793 18.3543C18.0301 18.1051 17.6262 18.1051 17.377 18.3543C17.1279 18.6034 17.1279 19.0073 17.377 19.2565C17.7589 19.6387 17.7452 20.2512 17.3585 20.6382L15.6667 22.2343C15.3046 22.5766 14.7176 22.5715 14.3424 22.234L3.14273 11.6404C1.38971 9.99579 0.821518 7.55429 1.65924 5.26812C2.46321 3.07388 4.38563 1.63633 6.67877 1.51381H7.07692C11.0877 1.51381 14.3507 4.7768 14.3507 8.78758C14.3507 9.13979 14.6365 9.42561 14.9887 9.42561C15.3409 9.42561 15.6268 9.13979 15.6268 8.78758C15.6268 4.7768 18.8897 1.51381 22.9005 1.51381H23.2987C25.5991 1.63697 27.5293 3.07417 28.3383 5.26776C29.1783 7.54561 28.6136 9.98805 26.8519 11.6546L23.2789 15.2277C22.8498 15.6568 22.6133 16.219 22.6133 16.8113C22.6133 17.4038 22.8497 17.9659 23.2789 18.395C23.528 18.6441 23.9319 18.6441 24.1811 18.395C24.4302 18.1458 24.4302 17.7419 24.1811 17.4927C23.9929 17.3045 23.8895 17.0627 23.8895 16.8113C23.8895 16.5599 23.9929 16.3181 24.1811 16.1298L27.7414 12.5692C29.8682 10.5582 30.5554 7.59126 29.5357 4.82626Z"/>
</svg>
