<svg width="19" height="18" viewBox="0 0 19 18" xmlns="http://www.w3.org/2000/svg">
<path d="M18.8151 16.8296L13.5799 11.6007C14.5729 10.3764 15.1706 8.81977 15.1706 7.12503C15.1706 3.19631 11.9704 0 8.03691 0C4.10342 0 0.903259 3.19631 0.903259 7.12503C0.903259 11.0537 4.10345 14.2501 8.03695 14.2501C9.73375 14.2501 11.2922 13.653 12.5181 12.6613L17.7533 17.8902C17.9 18.0366 18.1377 18.0366 18.2843 17.8902L18.8152 17.3599C18.9618 17.2135 18.9618 16.976 18.8151 16.8296ZM8.03695 12.75C4.93137 12.75 2.4051 10.2268 2.4051 7.12503C2.4051 4.02322 4.93137 1.50001 8.03695 1.50001C11.1425 1.50001 13.6688 4.02322 13.6688 7.12503C13.6688 10.2268 11.1425 12.75 8.03695 12.75Z"/>
</svg>
