<svg width="16" height="14" viewBox="0 0 16 14" xmlns="http://www.w3.org/2000/svg">
<path d="M3.70012 13.9993C3.64527 13.9993 3.59042 13.9825 3.54432 13.9491C3.4627 13.8902 3.42191 13.7905 3.43913 13.6919L4.25817 8.95331L0.789387 5.59779C0.717314 5.52783 0.691353 5.42343 0.722355 5.32849C0.753622 5.23328 0.836548 5.16385 0.936443 5.14939L5.72984 4.45798L7.87375 0.146749C7.91827 0.0568061 8.01048 0 8.11117 0C8.21213 0 8.30433 0.0568061 8.34858 0.146749L10.4922 4.45798L15.2859 5.14939C15.3858 5.16385 15.4685 5.23302 15.5 5.32849C15.531 5.42343 15.5053 5.5281 15.433 5.59779L11.9642 8.95383L12.783 13.6922C12.7999 13.7908 12.7591 13.8905 12.6778 13.9494C12.5961 14.0088 12.4878 14.0164 12.3985 13.9694L8.11117 11.7323L3.82333 13.9694C3.78464 13.9893 3.74225 13.9993 3.70012 13.9993Z"/>
</svg>
